<svg id="Layer_1" data-name="Layer 1" xmlns="http://www.w3.org/2000/svg" viewBox="0 0 24 24"><defs><style>.cls-1{fill:#333132;}</style></defs><path class="cls-1" d="M10.12,14.86a.47.47,0,0,1-.17,0l-8.2-3.12a.51.51,0,0,1-.32-.46.5.5,0,0,1,.31-.47l19.31-8a.5.5,0,0,1,.55.81L10.48,14.72A.54.54,0,0,1,10.12,14.86ZM3.28,11.22,10,13.78l9.12-9.12Z"/><path class="cls-1" d="M13.36,23.17h0a.51.51,0,0,1-.46-.32l-3.12-8.2a.5.5,0,0,1,.11-.53L21,3a.5.5,0,0,1,.82.55l-8,19.31A.5.5,0,0,1,13.36,23.17ZM10.82,14.6l2.56,6.72L19.93,5.48Z"/></svg>