<svg id="Layer_1" data-name="Layer 1" xmlns="http://www.w3.org/2000/svg" viewBox="0 0 24 24"><defs><style>.cls-1{fill:#333132;}</style></defs><path class="cls-1" d="M12,22.7A10.7,10.7,0,1,1,22.7,12,10.71,10.71,0,0,1,12,22.7ZM12,2.3A9.7,9.7,0,1,0,21.7,12,9.71,9.71,0,0,0,12,2.3Z"/><path class="cls-1" d="M12,22.7c-2.51,0-4.4-4.6-4.4-10.7S9.49,1.3,12,1.3,16.4,5.9,16.4,12,14.51,22.7,12,22.7ZM12,2.3c-1.61,0-3.4,4-3.4,9.7s1.79,9.7,3.4,9.7,3.4-4,3.4-9.7S13.61,2.3,12,2.3Z"/><rect class="cls-1" x="2.65" y="7.91" width="18.71" height="1"/><rect class="cls-1" x="2.65" y="15.09" width="18.71" height="1"/></svg>