<svg id="Layer_1" data-name="Layer 1" xmlns="http://www.w3.org/2000/svg" viewBox="0 0 24 24"><defs><style>.cls-1{fill:#333132;}</style></defs><path class="cls-1" d="M17.16,23.14H6.85a3.06,3.06,0,0,1-3.07-3.06V4.34A3.07,3.07,0,0,1,6.85,1.27h8l5.36,5.37V20.08A3.07,3.07,0,0,1,17.16,23.14ZM6.85,2.27A2.07,2.07,0,0,0,4.78,4.34V20.08a2.07,2.07,0,0,0,2.07,2.06H17.16a2.07,2.07,0,0,0,2.07-2.06v-13L14.45,2.27Z"/><path class="cls-1" d="M19.73,7.4H14.66a.5.5,0,0,1-.5-.5V1.77h1V6.4h4.57Z"/><path class="cls-1" d="M15.91,12.71h-5.2a.51.51,0,0,1-.5-.5.5.5,0,0,1,.5-.5h5.2a.5.5,0,0,1,.5.5A.5.5,0,0,1,15.91,12.71Z"/><path class="cls-1" d="M8.51,12.71H8a.5.5,0,0,1-.5-.5.5.5,0,0,1,.5-.5h.48a.5.5,0,0,1,.5.5A.51.51,0,0,1,8.51,12.71Z"/><path class="cls-1" d="M15.94,16.26h-5.2a.51.51,0,0,1-.5-.5.5.5,0,0,1,.5-.5h5.2a.5.5,0,0,1,.5.5A.5.5,0,0,1,15.94,16.26Z"/><path class="cls-1" d="M8.54,16.26H8.06a.5.5,0,0,1-.5-.5.5.5,0,0,1,.5-.5h.48a.5.5,0,0,1,.5.5A.51.51,0,0,1,8.54,16.26Z"/></svg>