<svg id="Layer_1" data-name="Layer 1" xmlns="http://www.w3.org/2000/svg" viewBox="0 0 24 24"><defs><style>.cls-1{fill:#333132;}</style></defs><path class="cls-1" d="M13.9,19.45A9.09,9.09,0,0,1,7.47,3.93h0A9.09,9.09,0,1,1,13.9,19.45ZM8.18,4.64a8.09,8.09,0,1,0,11.45,0,8.11,8.11,0,0,0-11.45,0Z"/><path class="cls-1" d="M6.53,18.23a.5.5,0,0,1-.35-.85l1.2-1.21a.51.51,0,0,1,.71,0,.5.5,0,0,1,0,.71l-1.2,1.2A.51.51,0,0,1,6.53,18.23Z"/><path class="cls-1" d="M4.09,22.13a2,2,0,0,1-1.38-.57h0a2,2,0,0,1,0-2.77l2.22-2.22a.5.5,0,0,1,.7,0L7.7,18.63a.51.51,0,0,1,0,.71L5.48,21.56A2,2,0,0,1,4.09,22.13Zm-.67-1.28a1,1,0,0,0,1.35,0L6.63,19,5.28,17.63,3.42,19.5A.94.94,0,0,0,3.42,20.85Z"/><path class="cls-1" d="M16.89,11h-6a.51.51,0,0,1-.5-.5.5.5,0,0,1,.5-.5h6a.5.5,0,0,1,.5.5A.51.51,0,0,1,16.89,11Z"/><path class="cls-1" d="M14.23,7.77H10.92a.51.51,0,0,1-.5-.5.5.5,0,0,1,.5-.5h3.31a.5.5,0,0,1,.5.5A.5.5,0,0,1,14.23,7.77Z"/><path class="cls-1" d="M16.89,14.19h-6a.5.5,0,0,1,0-1h6a.5.5,0,0,1,0,1Z"/></svg>