<svg id="Layer_1" data-name="Layer 1" xmlns="http://www.w3.org/2000/svg" viewBox="0 0 24 24"><defs><style>.cls-1{fill:#333132;}</style></defs><path class="cls-1" d="M22.28,21.06a.5.5,0,0,1-.5-.5V14a1.48,1.48,0,0,0-1.48-1.48H16.78v5.1a1.81,1.81,0,0,1-3.62,0V14a2.48,2.48,0,0,1,2.48-2.48h.1A1.76,1.76,0,0,0,14,10.17H10.65a1.76,1.76,0,0,0-1.72,1.38H9A2.48,2.48,0,0,1,11.51,14v3.62a1.81,1.81,0,0,1-3.62,0v-5.1H4.37A1.48,1.48,0,0,0,2.89,14v6.53a.5.5,0,0,1-.5.5.5.5,0,0,1-.5-.5V14a2.48,2.48,0,0,1,2.48-2.48H7.92a2.75,2.75,0,0,1,2.73-2.38H14a2.75,2.75,0,0,1,2.73,2.38H20.3A2.48,2.48,0,0,1,22.78,14v6.53A.5.5,0,0,1,22.28,21.06Zm-6.64-8.51A1.48,1.48,0,0,0,14.16,14v3.62a.81.81,0,1,0,1.62,0v-5.1Zm-6.75,0v5.1a.81.81,0,0,0,1.62,0V14A1.48,1.48,0,0,0,9,12.55Z"/><path class="cls-1" d="M6.45,10.34A2.53,2.53,0,1,1,9,7.81,2.53,2.53,0,0,1,6.45,10.34Zm0-4A1.53,1.53,0,1,0,8,7.81,1.52,1.52,0,0,0,6.45,6.29Z"/><path class="cls-1" d="M12.33,8a2.53,2.53,0,1,1,2.53-2.53A2.53,2.53,0,0,1,12.33,8Zm0-4.06a1.53,1.53,0,1,0,1.53,1.53A1.53,1.53,0,0,0,12.33,3.94Z"/><path class="cls-1" d="M18.19,10.34a2.53,2.53,0,1,1,2.52-2.53A2.53,2.53,0,0,1,18.19,10.34Zm0-4a1.53,1.53,0,1,0,1.52,1.52A1.53,1.53,0,0,0,18.19,6.29Z"/></svg>