<svg id="Layer_1" data-name="Layer 1" xmlns="http://www.w3.org/2000/svg" viewBox="0 0 24 24"><defs><style>.cls-1{fill:#333132;}</style></defs><g id="Vector"><path class="cls-1" d="M3.11,22a.5.5,0,0,1-.5-.5v-5a.5.5,0,0,1,1,0v5A.5.5,0,0,1,3.11,22Z"/></g><g id="Vector-2"><path class="cls-1" d="M12,22.52c-5.74,0-9.17-5.56-9.32-5.8a.54.54,0,0,1,0-.51A.52.52,0,0,1,3.11,16H7.63a.5.5,0,1,1,0,1H4.07C5.2,18.43,8,21.52,12,21.52A9.51,9.51,0,0,0,21.5,12a.5.5,0,1,1,1,0A10.51,10.51,0,0,1,12,22.52Zm-10-10a.5.5,0,0,1-.5-.5A10.49,10.49,0,0,1,12,1.52,12.84,12.84,0,0,1,21.5,6.07V2.58a.5.5,0,1,1,1,0v5a.66.66,0,0,1-.06.2A.52.52,0,0,1,22.3,8l-.16.08-.15,0H17.56a.5.5,0,0,1,0-1H21a11.78,11.78,0,0,0-9-4.56A9.49,9.49,0,0,0,2.5,12a.5.5,0,0,1-.5.5Z"/></g></svg>