<svg id="Layer_1" data-name="Layer 1" xmlns="http://www.w3.org/2000/svg" viewBox="0 0 24 24"><defs><style>.cls-1{fill:#333132;}</style></defs><path class="cls-1" d="M19.52,20.89h-15a3.23,3.23,0,0,1-3.23-3.23v-10A3.23,3.23,0,0,1,4.48,4.39h15a3.23,3.23,0,0,1,3.23,3.23v10A3.23,3.23,0,0,1,19.52,20.89Zm-15-15.5A2.23,2.23,0,0,0,2.25,7.62v10a2.23,2.23,0,0,0,2.23,2.23h15a2.23,2.23,0,0,0,2.23-2.23v-10a2.23,2.23,0,0,0-2.23-2.23Z"/><path class="cls-1" d="M12,14.76a.51.51,0,0,1-.34-.14L2.25,6l.67-.74L12,13.58l9.08-8.29.67.74-9.41,8.59A.51.51,0,0,1,12,14.76Z"/><rect class="cls-1" x="0.89" y="15.3" width="10.31" height="1" transform="translate(-9.62 9.42) rotate(-46.94)"/><rect class="cls-1" x="17.46" y="10.64" width="1" height="10.31" transform="translate(-5.95 16.51) rotate(-43.06)"/></svg>