<svg id="Layer_1" data-name="Layer 1" xmlns="http://www.w3.org/2000/svg" viewBox="0 0 24 24"><defs><style>.cls-1{fill:#333132;}</style></defs><g id="vuesax_linear_shopping-cart" data-name="vuesax linear shopping-cart"><g id="shopping-cart"><g id="Vector"><path class="cls-1" d="M7.12,17.49H6.85a3.31,3.31,0,0,1-3-3.56L4.67,3.85A1.35,1.35,0,0,0,3.32,2.5H1.58a.5.5,0,0,1,0-1H3.32a2.36,2.36,0,0,1,2.3,1.87h13a3.27,3.27,0,0,1,3,3.54l-.54,7.5a3.38,3.38,0,0,1-3.3,3.07ZM5.63,4.37,4.83,14a2.3,2.3,0,0,0,2.11,2.48H17.77a2.38,2.38,0,0,0,2.32-2.16l.54-7.49a2.29,2.29,0,0,0-2.07-2.46H5.63Z"/></g><g id="Vector-2"><path class="cls-1" d="M15.83,22.5a1.75,1.75,0,1,1,1.75-1.75A1.76,1.76,0,0,1,15.83,22.5Zm0-2.5a.75.75,0,1,0,.75.75A.76.76,0,0,0,15.83,20Z"/></g><g id="Vector-3"><path class="cls-1" d="M7.83,22.5a1.75,1.75,0,1,1,1.75-1.75A1.76,1.76,0,0,1,7.83,22.5Zm0-2.5a.75.75,0,1,0,.75.75A.76.76,0,0,0,7.83,20Z"/></g><g id="Vector-4"><path class="cls-1" d="M20.58,8.5h-12a.5.5,0,1,1,0-1h12a.5.5,0,0,1,0,1Z"/></g></g></g></svg>