<svg xmlns="http://www.w3.org/2000/svg" width="16" height="21" viewBox="0 0 24 24">
  <g id="Group_4168" data-name="Group 4168" transform="translate(-114 -144)">
    <path id="Union_3" data-name="Union 3" d="M415,1317a2,2,0,0,1-2-2v-10a2,2,0,0,1,2-2h1v-2a5,5,0,1,1,10,0v2h1a2,2,0,0,1,2,2v10a2,2,0,0,1-2,2Zm-1-12v10a1,1,0,0,0,1,1h12a1,1,0,0,0,1-1v-10a1,1,0,0,0-1-1H415A1,1,0,0,0,414,1305Zm3-4v2h8v-2a4,4,0,1,0-8,0Z" transform="translate(-299 -1152)" fill="#fff"/>
    <circle id="Ellipse_8" data-name="Ellipse 8" cx="2" cy="2" r="2" transform="translate(120 156)" fill="#fff"/>
  </g>
</svg>
