<svg id="Layer_1" data-name="Layer 1" xmlns="http://www.w3.org/2000/svg" viewBox="0 0 24 24"><defs><style>.cls-1{fill:#333132;}</style></defs><path class="cls-1" d="M12.21,18.92H5.71a.5.5,0,0,1-.5-.5.51.51,0,0,1,.5-.5h6.5a.5.5,0,0,1,.5.5A.5.5,0,0,1,12.21,18.92Z"/><path class="cls-1" d="M19.57,18.86a.5.5,0,0,1-.1-1,2.82,2.82,0,0,0-.55-5.58h0l-10.24,0A3.86,3.86,0,0,1,6,11.2,3.76,3.76,0,0,1,4.84,8.5,3.85,3.85,0,0,1,7.56,4.83a.5.5,0,0,1,.62.34.5.5,0,0,1-.33.62,2.84,2.84,0,0,0-2,2.71,2.82,2.82,0,0,0,2.82,2.82l10.25,0h0a3.82,3.82,0,0,1,3.81,3.82,3.82,3.82,0,0,1-3.06,3.74Z"/><path class="cls-1" d="M13.64,5.66a.5.5,0,0,1,0-1h4.61a.5.5,0,0,1,.5.5.5.5,0,0,1-.5.5Z"/><path class="cls-1" d="M20.33,7.72a2.58,2.58,0,1,1,2.58-2.57A2.58,2.58,0,0,1,20.33,7.72Zm0-4.15a1.58,1.58,0,1,0,1.58,1.58A1.58,1.58,0,0,0,20.33,3.57Z"/><path class="cls-1" d="M3.64,21a2.58,2.58,0,1,1,2.57-2.58A2.59,2.59,0,0,1,3.64,21Zm0-4.15a1.58,1.58,0,1,0,1.57,1.57A1.58,1.58,0,0,0,3.64,16.85Z"/><path class="cls-1" d="M10.72,8.46A3.32,3.32,0,1,1,14,5.15,3.32,3.32,0,0,1,10.72,8.46Zm0-5.63A2.32,2.32,0,1,0,13,5.15,2.32,2.32,0,0,0,10.72,2.83Z"/><path class="cls-1" d="M15.93,22.46a4,4,0,1,1,4-4A4,4,0,0,1,15.93,22.46Zm0-7.07a3,3,0,1,0,3,3A3,3,0,0,0,15.93,15.39Z"/></svg>