<svg id="Layer_1" data-name="Layer 1" xmlns="http://www.w3.org/2000/svg" viewBox="0 0 24 24"><defs><style>.cls-1{fill:#333132;}</style></defs><path class="cls-1" d="M11.48,14.06a2.28,2.28,0,1,1,2.28-2.28A2.28,2.28,0,0,1,11.48,14.06Zm0-3.56a1.28,1.28,0,1,0,1.28,1.28A1.28,1.28,0,0,0,11.48,10.5Z"/><path class="cls-1" d="M11.48,18.38A1.35,1.35,0,0,1,10.13,17v-.51a4.48,4.48,0,0,1-1-.43l-.35.36a1.36,1.36,0,0,1-2.32-1,1.31,1.31,0,0,1,.41-1l.35-.35a5,5,0,0,1-.44-1h-.5a1.36,1.36,0,1,1,0-2.71h.5a5.27,5.27,0,0,1,.43-1L6.82,9a1.35,1.35,0,0,1-.4-1,1.31,1.31,0,0,1,.4-1,1.41,1.41,0,0,1,1.92,0l.35.35a4.48,4.48,0,0,1,1-.43v-.5a1.36,1.36,0,1,1,2.71,0V7a4.75,4.75,0,0,1,1,.43l.36-.35a1.29,1.29,0,0,1,.95-.4,1.34,1.34,0,0,1,1,.39,1.33,1.33,0,0,1,.4,1,1.38,1.38,0,0,1-.39,1l-.36.36a5.05,5.05,0,0,1,.43,1h.5a1.36,1.36,0,1,1,0,2.71h-.5a5.56,5.56,0,0,1-.43,1l.35.35a1.35,1.35,0,0,1,0,1.92,1.38,1.38,0,0,1-1.92,0l-.35-.35a4.48,4.48,0,0,1-1,.43V17A1.35,1.35,0,0,1,11.48,18.38ZM9,15a.51.51,0,0,1,.28.09,3.84,3.84,0,0,0,1.43.59.5.5,0,0,1,.4.49V17a.36.36,0,0,0,.71,0v-.9a.5.5,0,0,1,.41-.49,4,4,0,0,0,1.43-.59.49.49,0,0,1,.63.06l.63.63c.25.26.4.11.51,0a.35.35,0,0,0,.1-.25.33.33,0,0,0-.1-.25l-.64-.63a.51.51,0,0,1-.06-.63,4.1,4.1,0,0,0,.59-1.44.5.5,0,0,1,.49-.4h.9a.36.36,0,0,0,.36-.36.35.35,0,0,0-.36-.35h-.9a.5.5,0,0,1-.49-.41,3.84,3.84,0,0,0-.59-1.43A.5.5,0,0,1,14.81,9l.64-.63a.35.35,0,0,0,.1-.26.32.32,0,0,0-.1-.24.33.33,0,0,0-.26-.11c-.14,0-.18,0-.24.1l-.63.63a.52.52,0,0,1-.64.07,3.83,3.83,0,0,0-1.43-.6.5.5,0,0,1-.41-.49V6.54a.36.36,0,1,0-.71,0v.89a.5.5,0,0,1-.4.49,4.23,4.23,0,0,0-1.45.59.49.49,0,0,1-.62-.06L8,7.82a.3.3,0,0,0-.5,0,.4.4,0,0,0-.11.26.36.36,0,0,0,.11.26L8.15,9a.5.5,0,0,1,.07.63A4,4,0,0,0,7.62,11a.49.49,0,0,1-.49.41H6.24a.35.35,0,0,0-.36.35.36.36,0,0,0,.36.36h.89a.49.49,0,0,1,.49.4A4,4,0,0,0,8.22,14a.47.47,0,0,1,.09.28.51.51,0,0,1-.15.36l-.64.63a.35.35,0,0,0,0,.5.34.34,0,0,0,.5,0l.63-.63A.51.51,0,0,1,9,15Z"/><path class="cls-1" d="M11.49,21.51H1.75a.5.5,0,0,1,0-1h9.74a8.6,8.6,0,0,0,3.59-.78,8.73,8.73,0,1,0-12-10.29.49.49,0,0,1-.61.34.5.5,0,0,1-.35-.61A9.73,9.73,0,0,1,14.92,2.68a9.63,9.63,0,0,1,5.43,5.09,9.74,9.74,0,0,1-4.86,12.87A9.54,9.54,0,0,1,11.49,21.51Z"/><path class="cls-1" d="M2.39,10.2a.45.45,0,0,1-.16,0,.57.57,0,0,1-.29-.26L.85,7.67A.49.49,0,0,1,1.08,7a.5.5,0,0,1,.67.22L2.62,9l1.8-.88a.5.5,0,0,1,.43.9L2.61,10.14A.43.43,0,0,1,2.39,10.2Z"/><path class="cls-1" d="M21.12,23.27a.46.46,0,0,1-.35-.14.5.5,0,0,1,0-.71L22.16,21l-1.43-1.4a.5.5,0,0,1,.7-.71l1.78,1.75a.49.49,0,0,1,0,.7l-1.75,1.78A.47.47,0,0,1,21.12,23.27Z"/><path class="cls-1" d="M22.14,21.51H11.48a.5.5,0,0,1,0-1H22.14a.5.5,0,0,1,0,1Z"/></svg>