<svg id="Layer_1" data-name="Layer 1" xmlns="http://www.w3.org/2000/svg" viewBox="0 0 24 24"><defs><style>.cls-1{fill:#333132;}</style></defs><path class="cls-1" d="M12,18.83a9.13,9.13,0,0,1-3.87-.93,14.77,14.77,0,0,1-5.07-4,2.68,2.68,0,0,1-.71-1.71A2.7,2.7,0,0,1,3.1,10.5a14.75,14.75,0,0,1,5.07-4,8.33,8.33,0,0,1,5.55-.74A13.29,13.29,0,0,1,21,10.47a2.64,2.64,0,0,1,.75,1.74A2.66,2.66,0,0,1,21,14a13.29,13.29,0,0,1-7.28,4.68A7.4,7.4,0,0,1,12,18.83ZM12,6.6a8.12,8.12,0,0,0-3.45.84,13.6,13.6,0,0,0-4.72,3.7,1.74,1.74,0,0,0-.48,1.07,1.7,1.7,0,0,0,.48,1.07A13.66,13.66,0,0,0,8.6,17a7.43,7.43,0,0,0,4.9.68,12.39,12.39,0,0,0,6.74-4.36,1.67,1.67,0,0,0,.51-1.1,1.7,1.7,0,0,0-.5-1.09h0A12.39,12.39,0,0,0,13.5,6.76,6.53,6.53,0,0,0,12,6.6Z"/><path class="cls-1" d="M12.07,15.71a3.5,3.5,0,1,1,3.49-3.5A3.5,3.5,0,0,1,12.07,15.71Zm0-6a2.5,2.5,0,1,0,2.49,2.49A2.5,2.5,0,0,0,12.07,9.72Z"/></svg>