<svg id="Layer_1" data-name="Layer 1" xmlns="http://www.w3.org/2000/svg" viewBox="0 0 24 24"><defs><style>.cls-1{fill:#333132;}</style></defs><g id="vuesax_linear_cloud-add" data-name="vuesax linear cloud-add"><g id="cloud-add"><g id="Group"><g id="Vector"><path class="cls-1" d="M7.72,19.09H5.8a4.24,4.24,0,0,1,0-8.47.48.48,0,0,1,.53.47.49.49,0,0,1-.46.53,3.19,3.19,0,0,0-2.23,1.09,3.16,3.16,0,0,0-.81,2.34,3.25,3.25,0,0,0,3,3H7.72a.5.5,0,1,1,0,1Z"/></g><g id="Vector-2"><path class="cls-1" d="M16.94,19.09h-.05a.54.54,0,0,1-.54-.5.47.47,0,0,1,.5-.5A4.88,4.88,0,0,0,21.71,14a4.84,4.84,0,0,0-4.05-5.5l-.36-.05-.06-.36a5.65,5.65,0,0,0-3.82-4.86A6.15,6.15,0,0,0,7.31,4.81a5.71,5.71,0,0,0-1,6.14.5.5,0,0,1-1,.34C4,7.56,5.56,5.2,6.59,4.12a7.15,7.15,0,0,1,7.12-1.86,6.48,6.48,0,0,1,4.45,5.31,5.82,5.82,0,0,1,4.54,6.57A5.85,5.85,0,0,1,16.94,19.09Z"/></g></g><g id="Vector-3"><path class="cls-1" d="M12.26,22a5.47,5.47,0,0,1-2.79-.77,5.4,5.4,0,0,1-1.9-1.9,5.12,5.12,0,0,1-.3-.57,5.3,5.3,0,0,1-.51-2.26,5.5,5.5,0,0,1,11,0,5.3,5.3,0,0,1-.5,2.28c-.09.18-.19.37-.3.55A5.46,5.46,0,0,1,12.26,22Zm0-10a4.51,4.51,0,0,0-4.5,4.5,4.17,4.17,0,0,0,.42,1.84,3.45,3.45,0,0,0,.24.47,4.47,4.47,0,0,0,7.69,0,4.92,4.92,0,0,0,.24-.45,4.17,4.17,0,0,0,.41-1.86h0A4.5,4.5,0,0,0,12.26,12Zm5.5,4.5h0Z"/></g><g id="Vector-4"><path class="cls-1" d="M11.68,18.21l-1.33-1.33a.5.5,0,0,1,0-.7.5.5,0,0,1,.71,0l.65.65,1.78-1.65a.5.5,0,0,1,.7,0,.5.5,0,0,1,0,.71Z"/></g></g></g></svg>