<svg id="Layer_1" data-name="Layer 1" xmlns="http://www.w3.org/2000/svg" viewBox="0 0 24 24"><defs><style>.cls-1{fill:#333132;}</style></defs><g id="vuesax_linear_programming-arrows" data-name="vuesax linear programming-arrows"><g id="programming-arrows"><g id="Vector"><path class="cls-1" d="M19.25,16.5a.5.5,0,0,1-.5-.5V6.5A1.5,1.5,0,0,0,17.25,5h-5.5a.5.5,0,0,1,0-1h5.5a2.5,2.5,0,0,1,2.5,2.5V16A.5.5,0,0,1,19.25,16.5Z"/></g><g id="Vector-2"><path class="cls-1" d="M14.25,7.5a.51.51,0,0,1-.32-.12l-3-2.5a.49.49,0,0,1,0-.76l3-2.5a.51.51,0,0,1,.71.06.49.49,0,0,1-.07.7L12,4.5l2.53,2.12a.5.5,0,0,1-.32.88Z"/></g><g id="Vector-3"><path class="cls-1" d="M19.25,22.5a3.5,3.5,0,1,1,3.5-3.5A3.5,3.5,0,0,1,19.25,22.5Zm0-6a2.5,2.5,0,1,0,2.5,2.5A2.51,2.51,0,0,0,19.25,16.5Z"/></g><g id="Vector-4"><path class="cls-1" d="M12.75,20H7.25a2.51,2.51,0,0,1-2.5-2.5V8a.5.5,0,0,1,.5-.5.5.5,0,0,1,.5.5v9.5A1.52,1.52,0,0,0,7.26,19h5.49a.5.5,0,0,1,0,1Z"/></g><g id="Vector-5"><path class="cls-1" d="M10.25,22.5a.5.5,0,0,1-.32-.88l2.54-2.12L9.93,17.38a.5.5,0,0,1,.64-.76l3,2.5a.49.49,0,0,1,0,.76l-3,2.5A.47.47,0,0,1,10.25,22.5Z"/></g><g id="Vector-6"><path class="cls-1" d="M5.25,8.5A3.5,3.5,0,1,1,8.75,5,3.5,3.5,0,0,1,5.25,8.5Zm0-6A2.5,2.5,0,1,0,7.75,5,2.51,2.51,0,0,0,5.25,2.5Z"/></g></g></g></svg>