<svg id="Layer_1" data-name="Layer 1" xmlns="http://www.w3.org/2000/svg" viewBox="0 0 24 24"><defs><style>.cls-1{fill:#333132;}</style></defs><path class="cls-1" d="M16.39,22.69a10.24,10.24,0,0,1-2.14-.24A16.19,16.19,0,0,1,6.52,18a16.27,16.27,0,0,1-4.47-7.73C1.45,7.49,2,5.11,3.54,3.55,6.69.4,13.16,1.74,18,6.54h0a16.08,16.08,0,0,1,4.47,7.72C23,17,22.51,19.41,21,21A6.29,6.29,0,0,1,16.39,22.69ZM8.11,2.82A5.31,5.31,0,0,0,4.24,4.26C2.93,5.57,2.5,7.62,3,10a15.09,15.09,0,0,0,4.2,7.23,15.14,15.14,0,0,0,7.23,4.2c2.42.53,4.48.1,5.78-1.21S22,16.9,21.46,14.48a15.25,15.25,0,0,0-4.2-7.24C14.4,4.39,10.94,2.82,8.11,2.82Z"/><path class="cls-1" d="M8.09,22.67A6.27,6.27,0,0,1,3.54,21C2,19.41,1.45,17,2.05,14.26A16.25,16.25,0,0,1,6.52,6.54a16.11,16.11,0,0,1,7.73-4.47C17,1.46,19.39,2,21,3.55s2.09,3.94,1.48,6.7A16.11,16.11,0,0,1,18,18h0C14.92,21,11.21,22.67,8.09,22.67Zm8.3-19.85A9.6,9.6,0,0,0,14.46,3a15.22,15.22,0,0,0-7.23,4.2A15.17,15.17,0,0,0,3,14.48C2.5,16.9,2.93,19,4.24,20.26c2.77,2.76,8.6,1.42,13-3A15.17,15.17,0,0,0,21.46,10c.52-2.42.09-4.47-1.22-5.78A5.25,5.25,0,0,0,16.39,2.82Zm1.22,14.8h0Z"/><path class="cls-1" d="M12.25,15.24A3.24,3.24,0,1,1,15.49,12,3.24,3.24,0,0,1,12.25,15.24Zm0-5.48A2.24,2.24,0,1,0,14.49,12,2.24,2.24,0,0,0,12.25,9.76Z"/></svg>