<svg id="Layer_1" data-name="Layer 1" xmlns="http://www.w3.org/2000/svg" viewBox="0 0 24 24"><defs><style>.cls-1{fill:#333132;}</style></defs><path class="cls-1" d="M15,14.87H9.07a.5.5,0,0,1-.5-.5V8.44a.5.5,0,1,1,1,0v5.43H15a.5.5,0,0,1,.5.5A.5.5,0,0,1,15,14.87Z"/><path class="cls-1" d="M9.07,14.87A.5.5,0,0,1,8.72,14l6.7-6.71a.51.51,0,0,1,.71,0,.5.5,0,0,1,0,.71l-6.71,6.7A.47.47,0,0,1,9.07,14.87Z"/><path class="cls-1" d="M6.28,23A.52.52,0,0,1,6,22.89a.48.48,0,0,1-.25-.43V18.88H2.89a1.63,1.63,0,0,1-1.64-1.63V4.89A1.64,1.64,0,0,1,2.89,3.25H21.22a1.64,1.64,0,0,1,1.64,1.64V17.25a1.63,1.63,0,0,1-1.64,1.63H13.46l-6.93,4A.59.59,0,0,1,6.28,23ZM2.89,4.25a.63.63,0,0,0-.64.64V17.25a.63.63,0,0,0,.64.63H6.28a.51.51,0,0,1,.35.15.49.49,0,0,1,.15.35v3.21L13.08,18a.52.52,0,0,1,.25-.07h7.89a.63.63,0,0,0,.64-.63V4.89a.63.63,0,0,0-.64-.64Z"/></svg>