<svg id="Layer_1" data-name="Layer 1" xmlns="http://www.w3.org/2000/svg" viewBox="0 0 24 24"><defs><style>.cls-1{fill:#333132;}</style></defs><g id="vuesax_linear_cpu-charge" data-name="vuesax linear cpu-charge"><g id="cpu-charge"><g id="Vector"><path class="cls-1" d="M14.64,20.5H9.84c-4.27,0-6.1-1.82-6.1-6.1V9.6c0-4.28,1.83-6.1,6.1-6.1h4.8c4.28,0,6.1,1.82,6.1,6.1v4.8C20.74,18.68,18.92,20.5,14.64,20.5Zm-4.8-16c-3.71,0-5.1,1.38-5.1,5.1v4.8c0,3.72,1.39,5.1,5.1,5.1h4.8c3.72,0,5.1-1.38,5.1-5.1V9.6c0-3.72-1.38-5.1-5.1-5.1Z"/></g><g id="Vector-2"><path class="cls-1" d="M13.74,17.5h-3c-2.76,0-4-1.23-4-4v-3c0-2.77,1.24-4,4-4h3c2.77,0,4,1.23,4,4v3C17.74,16.27,16.51,17.5,13.74,17.5Zm-3-10c-2.21,0-3,.79-3,3v3c0,2.21.79,3,3,3h3c2.22,0,3-.79,3-3v-3c0-2.21-.78-3-3-3Z"/></g><g id="Vector-3"><path class="cls-1" d="M8.25,4.5a.5.5,0,0,1-.5-.5V2a.5.5,0,0,1,.5-.5.5.5,0,0,1,.5.5V4A.5.5,0,0,1,8.25,4.5Z"/></g><g id="Vector-4"><path class="cls-1" d="M12.24,4.5a.5.5,0,0,1-.5-.5V2a.5.5,0,0,1,.5-.5.5.5,0,0,1,.5.5V4A.5.5,0,0,1,12.24,4.5Z"/></g><g id="Vector-5"><path class="cls-1" d="M16.24,4.5a.5.5,0,0,1-.5-.5V2a.5.5,0,0,1,.5-.5.5.5,0,0,1,.5.5V4A.5.5,0,0,1,16.24,4.5Z"/></g><g id="Vector-6"><path class="cls-1" d="M22.24,8.5h-2a.5.5,0,0,1,0-1h2a.5.5,0,0,1,0,1Z"/></g><g id="Vector-7"><path class="cls-1" d="M22.24,12.5h-2a.5.5,0,1,1,0-1h2a.5.5,0,0,1,0,1Z"/></g><g id="Vector-8"><path class="cls-1" d="M22.24,16.5h-2a.5.5,0,1,1,0-1h2a.5.5,0,0,1,0,1Z"/></g><g id="Vector-9"><path class="cls-1" d="M16.24,22.5a.5.5,0,0,1-.5-.5V20a.5.5,0,0,1,.5-.5.5.5,0,0,1,.5.5v2A.5.5,0,0,1,16.24,22.5Z"/></g><g id="Vector-10"><path class="cls-1" d="M12.25,22.5a.5.5,0,0,1-.5-.5V20a.5.5,0,0,1,.5-.5.5.5,0,0,1,.5.5v2A.5.5,0,0,1,12.25,22.5Z"/></g><g id="Vector-11"><path class="cls-1" d="M8.25,22.5a.5.5,0,0,1-.5-.5V20a.5.5,0,0,1,.5-.5.5.5,0,0,1,.5.5v2A.5.5,0,0,1,8.25,22.5Z"/></g><g id="Vector-12"><path class="cls-1" d="M4.24,8.5h-2a.5.5,0,0,1,0-1h2a.5.5,0,0,1,0,1Z"/></g><g id="Vector-13"><path class="cls-1" d="M4.24,12.5h-2a.5.5,0,0,1,0-1h2a.5.5,0,1,1,0,1Z"/></g><g id="Vector-14"><path class="cls-1" d="M4.24,16.5h-2a.5.5,0,0,1,0-1h2a.5.5,0,1,1,0,1Z"/></g><g id="Vector-15"><path class="cls-1" d="M12.24,14.8a.42.42,0,0,1-.24-.07.49.49,0,0,1-.19-.68l.89-1.54h-1a.89.89,0,0,1-.81-1.41l.94-1.64a.5.5,0,0,1,.87.5l-.89,1.54h1a.9.9,0,0,1,.82,1.41l-.94,1.64A.5.5,0,0,1,12.24,14.8Z"/></g></g></g></svg>