<svg id="Layer_1" data-name="Layer 1" xmlns="http://www.w3.org/2000/svg" viewBox="0 0 24 24"><defs><style>.cls-1{fill:#333132;}</style></defs><g id="vuesax_linear_call" data-name="vuesax linear call"><g id="call"><g id="call-2"><g id="Vector"><path class="cls-1" d="M17.16,22.25h0a8.12,8.12,0,0,1-3.26-.73,16.7,16.7,0,0,1-3.33-1.91,27.5,27.5,0,0,1-3.13-2.68A25.66,25.66,0,0,1,4.74,13.8a17.37,17.37,0,0,1-1.9-3.29,8.31,8.31,0,0,1-.71-3.26,5.31,5.31,0,0,1,.37-2A4.81,4.81,0,0,1,3.7,3.49,3.26,3.26,0,0,1,6,2.48H6a2.3,2.3,0,0,1,1,.21,2,2,0,0,1,.83.7L10,6.45a3.48,3.48,0,0,1,.43.75,2.11,2.11,0,0,1,.17.76,1.75,1.75,0,0,1-.27.94,3.93,3.93,0,0,1-.6.76L9,10.39l0,.15,0,.06a7.18,7.18,0,0,0,.8,1.1c.41.48.86,1,1.34,1.46s1,1,1.46,1.35a6.86,6.86,0,0,0,1.13.81h0l.17,0,.74-.72a3.34,3.34,0,0,1,.78-.61,1.73,1.73,0,0,1,.91-.26,2,2,0,0,1,.77.16,4.62,4.62,0,0,1,.75.42L21,16.57a1.84,1.84,0,0,1,.68.8,2.38,2.38,0,0,1,.19.93h0a3,3,0,0,1-.28,1.24,4.28,4.28,0,0,1-.72,1.07,4.8,4.8,0,0,1-1.71,1.24A5.28,5.28,0,0,1,17.16,22.25ZM6,3.48H6a2.21,2.21,0,0,0-1.59.72,4,4,0,0,0-1,1.41,4.14,4.14,0,0,0-.3,1.63,7.34,7.34,0,0,0,.63,2.87,16.22,16.22,0,0,0,1.79,3.1,25.47,25.47,0,0,0,2.57,3,26.68,26.68,0,0,0,3,2.58,16.19,16.19,0,0,0,3.13,1.8,7.32,7.32,0,0,0,2.87.64,3.94,3.94,0,0,0,3-1.29,3.84,3.84,0,0,0,.56-.84,1.91,1.91,0,0,0,.18-.81,1.24,1.24,0,0,0-.11-.54.86.86,0,0,0-.33-.38l-3.12-2.21a2.8,2.8,0,0,0-.56-.32,1,1,0,0,0-.39-.08.71.71,0,0,0-.39.12,2.42,2.42,0,0,0-.58.45l-.72.71a1.06,1.06,0,0,1-.75.31,1.11,1.11,0,0,1-.39-.07l-.13-.05-.12-.06a7.35,7.35,0,0,1-1.3-.93c-.44-.37-.91-.81-1.51-1.39s-1-1-1.39-1.52a8.22,8.22,0,0,1-.92-1.27L8.11,11,8,10.81A1.55,1.55,0,0,1,8,10.42a1,1,0,0,1,.3-.73L9,9a2.74,2.74,0,0,0,.45-.58A.72.72,0,0,0,9.57,8a.83.83,0,0,0-.09-.36A2.39,2.39,0,0,0,9.16,7L7,4a1.07,1.07,0,0,0-.43-.36A1.3,1.3,0,0,0,6,3.48Z"/></g></g></g></g></svg>