<svg id="Layer_1" data-name="Layer 1" xmlns="http://www.w3.org/2000/svg" viewBox="0 0 24 24"><defs><style>.cls-1{fill:#333132;}</style></defs><path class="cls-1" d="M16.69,19.4H7.31a2.66,2.66,0,0,1-2.66-2.65V9.17A2.66,2.66,0,0,1,7.31,6.51h9.38a2.66,2.66,0,0,1,2.66,2.66v7.58A2.66,2.66,0,0,1,16.69,19.4ZM7.31,7.51A1.66,1.66,0,0,0,5.65,9.17v7.58A1.65,1.65,0,0,0,7.31,18.4h9.38a1.65,1.65,0,0,0,1.66-1.65V9.17a1.66,1.66,0,0,0-1.66-1.66Z"/><rect class="cls-1" x="11.5" y="18.9" width="1" height="4.09"/><path class="cls-1" d="M8.63,7.51a.5.5,0,0,1-.5-.5V1.59a.5.5,0,0,1,.5-.5.51.51,0,0,1,.5.5V7A.5.5,0,0,1,8.63,7.51Z"/><path class="cls-1" d="M15.58,7.51a.5.5,0,0,1-.5-.5V1.59a.5.5,0,0,1,.5-.5.51.51,0,0,1,.5.5V7A.5.5,0,0,1,15.58,7.51Z"/></svg>