<svg id="Layer_1" data-name="Layer 1" xmlns="http://www.w3.org/2000/svg" viewBox="0 0 24 24"><defs><style>.cls-1{fill:#333132;}</style></defs><path class="cls-1" d="M12.22,22A10,10,0,0,1,7,20.56l-2.56,1A1.31,1.31,0,0,1,2.71,20l.89-2.84A10.09,10.09,0,0,1,2.39,9.93a10,10,0,0,1,8.16-7.82h0a10,10,0,0,1,3.66,19.72A10.32,10.32,0,0,1,12.22,22ZM7.05,19.5a.5.5,0,0,1,.27.08A9,9,0,1,0,10.71,3.1h0a9,9,0,0,0-7.34,7,9.08,9.08,0,0,0,1.2,6.66.49.49,0,0,1,0,.47v0l-.92,2.95a.32.32,0,0,0,.08.33.32.32,0,0,0,.33.06l2.74-1.07,0,0A.57.57,0,0,1,7.05,19.5Z"/><g id="vuesax_linear_call" data-name="vuesax linear call"><g id="call"><g id="call-2"><g id="Vector"><path class="cls-1" d="M15.24,17.57h0a4.75,4.75,0,0,1-1.86-.41,9.57,9.57,0,0,1-1.83-1.06,14.48,14.48,0,0,1-3.19-3.19,9.67,9.67,0,0,1-1-1.82,4.73,4.73,0,0,1-.4-1.85A3.11,3.11,0,0,1,7.1,8.07a2.84,2.84,0,0,1,.71-1,1.94,1.94,0,0,1,1.38-.61,1.59,1.59,0,0,1,.64.14,1.38,1.38,0,0,1,.54.45l1.17,1.65a2.51,2.51,0,0,1,.26.45,1.59,1.59,0,0,1,.11.49,1.3,1.3,0,0,1-.19.65,2.09,2.09,0,0,1-.36.45l-.27.29a3.83,3.83,0,0,0,.36.49c.23.26.46.52.72.78s.51.49.77.71a3,3,0,0,0,.51.37l.28-.28a2.48,2.48,0,0,1,.47-.37,1.32,1.32,0,0,1,.61-.17,1.35,1.35,0,0,1,.5.11,2.46,2.46,0,0,1,.45.25l1.68,1.19a1.21,1.21,0,0,1,.44.53,1.41,1.41,0,0,1,.13.6h0a1.71,1.71,0,0,1-.18.77,2.62,2.62,0,0,1-.42.64,2.83,2.83,0,0,1-1,.72A3.08,3.08,0,0,1,15.24,17.57Zm-6-10.14h0a1,1,0,0,0-.69.32A1.87,1.87,0,0,0,8,8.44a1.94,1.94,0,0,0-.14.79,3.56,3.56,0,0,0,.32,1.46,8.23,8.23,0,0,0,.94,1.63,13.08,13.08,0,0,0,3,3,8.14,8.14,0,0,0,1.64.95,3.75,3.75,0,0,0,1.47.33,2.45,2.45,0,0,0,.79-.15,1.87,1.87,0,0,0,.64-.47,1.48,1.48,0,0,0,.27-.4.81.81,0,0,0,.08-.34.45.45,0,0,0,0-.2.41.41,0,0,0-.09-.1l-1.7-1.2a1.35,1.35,0,0,0-.26-.15.27.27,0,0,0-.12,0l-.11.05a.88.88,0,0,0-.24.19l-.4.39a.73.73,0,0,1-.57.23.76.76,0,0,1-.28-.05l-.11-.05a3.61,3.61,0,0,1-.8-.55c-.27-.23-.55-.49-.83-.76s-.53-.56-.76-.84a4.18,4.18,0,0,1-.53-.72l0-.09-.05-.14a1,1,0,0,1,0-.24.76.76,0,0,1,.23-.56l.38-.39a1.31,1.31,0,0,0,.21-.27.17.17,0,0,0,0-.11.26.26,0,0,0,0-.1,1.1,1.1,0,0,0-.15-.26L9.55,7.59a.36.36,0,0,0-.14-.11A.37.37,0,0,0,9.21,7.43Zm4.14,6h0ZM11,11.09h0Z"/></g></g></g></g></svg>