<svg id="Layer_1" data-name="Layer 1" xmlns="http://www.w3.org/2000/svg" viewBox="0 0 24 24"><defs><style>.cls-1{fill:#333132;}</style></defs><g id="vuesax_linear_mirror" data-name="vuesax linear mirror"><g id="mirror"><g id="Vector"><path class="cls-1" d="M12.24,18.06a8.5,8.5,0,1,1,8.5-8.5A8.51,8.51,0,0,1,12.24,18.06Zm0-16a7.5,7.5,0,1,0,7.5,7.5A7.52,7.52,0,0,0,12.24,2.06Z"/></g><g id="Vector-2"><path class="cls-1" d="M18.24,22.06h-12a.5.5,0,0,1-.5-.5.51.51,0,0,1,.5-.5h12a.5.5,0,0,1,.5.5A.5.5,0,0,1,18.24,22.06Z"/></g></g></g></svg>