<svg id="Layer_1" data-name="Layer 1" xmlns="http://www.w3.org/2000/svg" viewBox="0 0 24 24"><defs><style>.cls-1{fill:#333132;}</style></defs><g id="Vector"><path class="cls-1" d="M17.8,9.46H4.13a3,3,0,0,1-3-3V4a3,3,0,0,1,3-3H17.8a3,3,0,0,1,3,3V6.46A3,3,0,0,1,17.8,9.46ZM17.8,2H4.13a2,2,0,0,0-2,2V6.46a2,2,0,0,0,2,2H17.8a2,2,0,0,0,2-2V4A2,2,0,0,0,17.8,2Z"/></g><g id="Vector-2"><path class="cls-1" d="M12.6,19.73H4.13a3,3,0,0,1-3-3V14.27a3,3,0,0,1,3-3H17.8a3.08,3.08,0,0,1,2.89,2.13.5.5,0,0,1-.33.62.49.49,0,0,1-.62-.34,2.07,2.07,0,0,0-1.94-1.41H4.13a2,2,0,0,0-2,2v2.45a2,2,0,0,0,2,2H12.6a.5.5,0,0,1,.5.5A.5.5,0,0,1,12.6,19.73Z"/></g><g id="Vector-3"><path class="cls-1" d="M5.35,6.66a.51.51,0,0,1-.5-.5V4.29a.5.5,0,0,1,.5-.5.5.5,0,0,1,.5.5V6.16A.5.5,0,0,1,5.35,6.66Z"/></g><g id="Vector-4"><path class="cls-1" d="M9.09,6.66a.5.5,0,0,1-.5-.5V4.29a.5.5,0,1,1,1,0V6.16A.5.5,0,0,1,9.09,6.66Z"/></g><g id="Vector-5"><path class="cls-1" d="M5.35,16.93a.5.5,0,0,1-.5-.5V14.56a.51.51,0,0,1,.5-.5.5.5,0,0,1,.5.5v1.87A.5.5,0,0,1,5.35,16.93Z"/></g><g id="Vector-6"><path class="cls-1" d="M9.09,16.93a.5.5,0,0,1-.5-.5V14.56a.5.5,0,1,1,1,0v1.87A.5.5,0,0,1,9.09,16.93Z"/></g><g id="Vector-7"><path class="cls-1" d="M16.56,5.72H12.83a.5.5,0,0,1-.5-.5.5.5,0,0,1,.5-.5h3.73a.5.5,0,0,1,.5.5A.5.5,0,0,1,16.56,5.72Z"/></g><g id="Vector-11"><path class="cls-1" d="M17.63,20.32a2.06,2.06,0,1,1,2.06-2.06A2.06,2.06,0,0,1,17.63,20.32Zm0-3.11a1.06,1.06,0,0,0,0,2.11,1.06,1.06,0,1,0,0-2.11Z"/></g><g id="Vector-12"><path class="cls-1" d="M19.28,23.64a1.41,1.41,0,0,1-.35-.05A1.35,1.35,0,0,1,18.1,23L18,22.87l0-.1a.41.41,0,0,0-.2-.23.44.44,0,0,0-.3,0,.39.39,0,0,0-.25.25l-.05.1-.06.09a1.36,1.36,0,0,1-1.85.49l-.9-.52a1.48,1.48,0,0,1-.55-2c.14-.23.18-.43.11-.55s-.26-.18-.53-.18A1.47,1.47,0,0,1,12,18.74V17.8a1.47,1.47,0,0,1,1.47-1.47c.26,0,.46-.07.52-.19s0-.31-.1-.54a1.46,1.46,0,0,1-.15-1.12,1.49,1.49,0,0,1,.69-.9l.89-.52a1.37,1.37,0,0,1,1.87.5l.05.09a.41.41,0,0,1,.05.09.39.39,0,0,0,.5.25.39.39,0,0,0,.25-.25l0-.09.06-.1A1.38,1.38,0,0,1,20,13.06l.89.52a1.47,1.47,0,0,1,.55,2c-.13.24-.17.44-.1.55s.26.19.51.19a1.47,1.47,0,0,1,1.48,1.47v.91a1.48,1.48,0,0,1-1.48,1.48.59.59,0,0,0-.51.18.58.58,0,0,0,.1.54A1.51,1.51,0,0,1,21.55,22a1.49,1.49,0,0,1-.69.9l-.89.52A1.43,1.43,0,0,1,19.28,23.64Zm-.35-1.25,0,.06a.33.33,0,0,0,.23.17.32.32,0,0,0,.27,0l.89-.52a.47.47,0,0,0,.23-.29.48.48,0,0,0,0-.37,1.39,1.39,0,0,1,1.28-2.22.48.48,0,0,0,.48-.48V17.8a.47.47,0,0,0-.48-.47,1.51,1.51,0,0,1-1.38-.69,1.54,1.54,0,0,1,.1-1.54.48.48,0,0,0-.17-.65l-.9-.52a.37.37,0,0,0-.5.13l0,.06a1.42,1.42,0,0,1-.86.82,1.4,1.4,0,0,1-1.75-.82l0-.06a.37.37,0,0,0-.51-.13l-.88.51a.47.47,0,0,0-.18.66,1.4,1.4,0,0,1-1.29,2.23.47.47,0,0,0-.47.47v.93a.4.4,0,0,0,.14.32.39.39,0,0,0,.33.14,1.39,1.39,0,0,1,1.29,2.22.47.47,0,0,0,.17.66l.89.52a.4.4,0,0,0,.51-.14l0-.06a1.39,1.39,0,0,1,.85-.81,1.37,1.37,0,0,1,1.07.06A1.41,1.41,0,0,1,18.93,22.39Z"/></g></svg>