<svg id="Layer_1" data-name="Layer 1" xmlns="http://www.w3.org/2000/svg" viewBox="0 0 24 24"><defs><style>.cls-1{fill:#333132;}</style></defs><path class="cls-1" d="M12,21.72h-.09l-7-1.21a2.7,2.7,0,0,1-2.23-2.66v-7a.5.5,0,0,1,.5-.5.51.51,0,0,1,.5.5v7A1.69,1.69,0,0,0,5.1,19.51l6.38,1.12V4.26a.5.5,0,0,1,.5-.5.5.5,0,0,1,.5.5v17a.51.51,0,0,1-.5.5Z"/><path class="cls-1" d="M12,21.72a.51.51,0,0,1-.5-.41.5.5,0,0,1,.41-.58l7-1.22a1.7,1.7,0,0,0,1.41-1.67v-7a.5.5,0,0,1,.5-.5.51.51,0,0,1,.5.5v7A2.7,2.7,0,0,1,19,20.5l-7,1.21Z"/><path class="cls-1" d="M7.13,10.9H7l-4.64-.28A2.25,2.25,0,0,1,.59,9.51,2.23,2.23,0,0,1,.45,7.43l1.32-3a.51.51,0,0,1,.45-.3l9.36-.32a.5.5,0,0,1,0,1l-9,.31L1.37,7.82A1.28,1.28,0,0,0,2.44,9.61l.8.07,3.81.22A1.28,1.28,0,0,0,8.34,9l.38-1.15a.5.5,0,0,1,.95.31L9.29,9.33A2.27,2.27,0,0,1,7.13,10.9Z"/><path class="cls-1" d="M16.83,10.9a2.29,2.29,0,0,1-2.17-1.57l-.38-1.15a.5.5,0,0,1,.32-.63.49.49,0,0,1,.63.32L15.61,9a1.29,1.29,0,0,0,1.29.88l4.61-.29a1.27,1.27,0,0,0,1-.62,1.3,1.3,0,0,0,.08-1.17l-1.2-2.75-9-.31a.5.5,0,0,1-.48-.52.51.51,0,0,1,.52-.48l9.36.32a.5.5,0,0,1,.44.3L23.5,7.43a2.27,2.27,0,0,1-1.91,3.18l-.8.07L17,10.89Z"/></svg>