<svg id="Layer_1" data-name="Layer 1" xmlns="http://www.w3.org/2000/svg" viewBox="0 0 24 24"><defs><style>.cls-1{fill:#333132;}</style></defs><g id="vuesax_linear_data" data-name="vuesax linear data"><g id="data"><g id="Vector"><path class="cls-1" d="M20,14.5A2.5,2.5,0,1,1,22.5,12,2.5,2.5,0,0,1,20,14.5Zm0-4A1.5,1.5,0,1,0,21.5,12,1.5,1.5,0,0,0,20,10.5Z"/></g><g id="Vector-2"><path class="cls-1" d="M20,6.5A2.5,2.5,0,1,1,22.5,4,2.5,2.5,0,0,1,20,6.5Zm0-4A1.5,1.5,0,1,0,21.5,4,1.5,1.5,0,0,0,20,2.5Z"/></g><g id="Vector-3"><path class="cls-1" d="M20,22.5A2.5,2.5,0,1,1,22.5,20,2.5,2.5,0,0,1,20,22.5Zm0-4A1.5,1.5,0,1,0,21.5,20,1.5,1.5,0,0,0,20,18.5Z"/></g><g id="Vector-4"><path class="cls-1" d="M4,14.5A2.5,2.5,0,1,1,6.5,12,2.5,2.5,0,0,1,4,14.5Zm0-4A1.5,1.5,0,1,0,5.5,12,1.5,1.5,0,0,0,4,10.5Z"/></g><g id="Vector-5"><rect class="cls-1" x="6" y="11.5" width="12" height="1"/></g><g id="Vector-6"><path class="cls-1" d="M13.63,20.53l-.45,0a3.17,3.17,0,0,1-2.68-3.57V7a2.8,2.8,0,0,1,0-.82,3.16,3.16,0,0,1,3.57-2.67H18v1H14a2.18,2.18,0,0,0-2.5,1.82,2.08,2.08,0,0,0,0,.61V17a2.19,2.19,0,0,0,1.82,2.51,2.49,2.49,0,0,0,.61,0H18v1H14A2.13,2.13,0,0,1,13.63,20.53Z"/></g></g></g></svg>