<svg id="Layer_1" data-name="Layer 1" xmlns="http://www.w3.org/2000/svg" viewBox="0 0 24 24"><defs><style>.cls-1{fill:#333132;}</style></defs><path class="cls-1" d="M12.46,22.69a10.6,10.6,0,0,1-5.58-1.57L4.12,22.2a1.35,1.35,0,0,1-1.43-.28,1.36,1.36,0,0,1-.38-1.4l1-3.05a10.68,10.68,0,0,1,7.4-16l.08.49-.08-.49a10.7,10.7,0,0,1,3.92,21A11,11,0,0,1,12.46,22.69ZM6.93,20.06a.5.5,0,0,1,.26.08,9.74,9.74,0,0,0,7.2,1.36A9.7,9.7,0,0,0,10.83,2.44,9.62,9.62,0,0,0,3,10a9.72,9.72,0,0,0,1.28,7.15.52.52,0,0,1,0,.47l0,0-1,3.16a.36.36,0,0,0,.1.38.37.37,0,0,0,.39.08l2.93-1.15,0,0A.43.43,0,0,1,6.93,20.06Z"/><g id="vuesax_linear_call" data-name="vuesax linear call"><g id="call"><g id="call-2"><g id="Vector"><path class="cls-1" d="M15.43,17.93h0a5.1,5.1,0,0,1-2-.44,10.07,10.07,0,0,1-2-1.13,16.22,16.22,0,0,1-1.84-1.57A15.89,15.89,0,0,1,8.08,13,10.48,10.48,0,0,1,7,11a4.9,4.9,0,0,1-.43-2,3.07,3.07,0,0,1,.23-1.24,2.84,2.84,0,0,1,.75-1.09A2.07,2.07,0,0,1,9,6.07a2,2,0,0,1,.67.15,1.34,1.34,0,0,1,.56.47l1.26,1.77a2.37,2.37,0,0,1,.26.47,1.32,1.32,0,0,1,.12.52,1.22,1.22,0,0,1-.19.66,2.17,2.17,0,0,1-.38.48l-.31.33a3.5,3.5,0,0,0,.4.55c.24.28.5.56.77.84s.55.53.83.77a3.73,3.73,0,0,0,.57.41l.32-.32a2.07,2.07,0,0,1,.5-.38,1.19,1.19,0,0,1,.63-.18,1.36,1.36,0,0,1,.53.11A2.68,2.68,0,0,1,16,13l1.8,1.28a1.28,1.28,0,0,1,.46.54,1.58,1.58,0,0,1,.13.63h0a1.87,1.87,0,0,1-.18.8,2.77,2.77,0,0,1-.45.68,3,3,0,0,1-1.07.76A3.08,3.08,0,0,1,15.43,17.93ZM9,7.07H9a1.13,1.13,0,0,0-.77.35,2.11,2.11,0,0,0-.52.76A2.07,2.07,0,0,0,7.53,9a4.07,4.07,0,0,0,.34,1.58,10.56,10.56,0,0,0,1,1.76,16,16,0,0,0,1.47,1.71,14.2,14.2,0,0,0,1.72,1.47,8.93,8.93,0,0,0,1.77,1,4,4,0,0,0,1.58.36,2.44,2.44,0,0,0,.86-.17,1.86,1.86,0,0,0,.7-.51,1.63,1.63,0,0,0,.3-.44,1,1,0,0,0,.08-.37.59.59,0,0,0,0-.23.33.33,0,0,0-.11-.13L15.39,13.8a1.28,1.28,0,0,0-.28-.16.25.25,0,0,0-.25,0,1.24,1.24,0,0,0-.3.23l-.42.42a.8.8,0,0,1-.59.23.63.63,0,0,1-.29,0l-.12-.05a4.27,4.27,0,0,1-.84-.58c-.29-.25-.58-.52-.89-.82s-.56-.6-.81-.89a4.34,4.34,0,0,1-.56-.77.36.36,0,0,1,0-.09L10,11.13a.73.73,0,0,1,0-.25.82.82,0,0,1,.24-.58l.4-.42a1.61,1.61,0,0,0,.24-.29.25.25,0,0,0,0-.14.3.3,0,0,0,0-.11,1.57,1.57,0,0,0-.16-.29L9.37,7.26a.33.33,0,0,0-.16-.13A.53.53,0,0,0,9,7.07Zm4.45,6.51h0ZM10.87,11h0Z"/></g></g></g></g></svg>