<svg id="Layer_1" data-name="Layer 1" xmlns="http://www.w3.org/2000/svg" viewBox="0 0 24 24"><defs><style>.cls-1{fill:#333132;}</style></defs><path class="cls-1" d="M9.43,19.5a.5.5,0,0,1-.35-.14L4.2,14.48a.51.51,0,0,1-.15-.35.53.53,0,0,1,.15-.36l8.22-8.22a.5.5,0,0,1,.71,0L18,10.42a.52.52,0,0,1,.14.36.5.5,0,0,1-.14.35L9.78,19.36A.52.52,0,0,1,9.43,19.5ZM5.26,14.13l4.17,4.16L17,10.78,12.78,6.61Z"/><path class="cls-1" d="M17.65,11.28a.5.5,0,0,1-.35-.15L12.42,6.25a.5.5,0,0,1,0-.7l2-2a4,4,0,0,1,5.58,0,3.81,3.81,0,0,1,1.15,2.8A3.81,3.81,0,0,1,20,9.12l-2,2A.51.51,0,0,1,17.65,11.28ZM13.49,5.9l4.16,4.17,1.66-1.65a2.91,2.91,0,0,0,.85-2.09,2.88,2.88,0,0,0-.85-2.09,3,3,0,0,0-4.17,0Z"/><path class="cls-1" d="M2.43,21.62a.51.51,0,0,1-.36-.15A.49.49,0,0,1,2,21l2.12-7a.52.52,0,0,1,.35-.34.53.53,0,0,1,.48.13l4.87,4.88a.5.5,0,0,1,.14.48.52.52,0,0,1-.34.35l-7,2.12Zm2.35-6.55-1.6,5.3,5.3-1.6Z"/></svg>