<svg id="Layer_1" data-name="Layer 1" xmlns="http://www.w3.org/2000/svg" viewBox="0 0 24 24"><defs><style>.cls-1{fill:#333132;}</style></defs><path class="cls-1" d="M10.35,21.56A9.47,9.47,0,0,1,3.5,18.67a.49.49,0,0,1,0-.7.5.5,0,0,1,.71,0,8.47,8.47,0,0,0,6.13,2.59A8.56,8.56,0,1,0,4.09,6.16a.5.5,0,0,1-.71,0,.49.49,0,0,1,0-.7,9.56,9.56,0,1,1,7,16.08Z"/><path class="cls-1" d="M13.28,21.56a10.09,10.09,0,0,1-1.35-.09.51.51,0,0,1-.43-.57.51.51,0,0,1,.57-.42,8.2,8.2,0,0,0,1.21.08,8.56,8.56,0,1,0,0-17.12,8.92,8.92,0,0,0-1.16.07.5.5,0,0,1-.57-.42A.51.51,0,0,1,12,2.52a11.34,11.34,0,0,1,1.3-.08,9.56,9.56,0,1,1,0,19.12Z"/><path class="cls-1" d="M4.1,12.61H1.58a.5.5,0,0,1-.5-.5.5.5,0,0,1,.5-.5H4.1a.51.51,0,0,1,.5.5A.5.5,0,0,1,4.1,12.61Z"/><path class="cls-1" d="M13.5,12.61H6.17a.5.5,0,0,1-.5-.5.5.5,0,0,1,.5-.5h6.14L8.82,8.05a.5.5,0,0,1,.71-.7l4.32,4.41a.49.49,0,0,1,.11.55A.51.51,0,0,1,13.5,12.61Z"/><path class="cls-1" d="M9.05,17.06a.5.5,0,0,1-.35-.15.5.5,0,0,1,0-.71l4.44-4.44a.51.51,0,0,1,.71,0,.5.5,0,0,1,0,.71L9.41,16.91A.51.51,0,0,1,9.05,17.06Z"/></svg>