<svg id="Layer_1" data-name="Layer 1" xmlns="http://www.w3.org/2000/svg" viewBox="0 0 24 24"><defs><style>.cls-1{fill:#333132;}</style></defs><g id="Vector"><path class="cls-1" d="M11.48,19.25a.91.91,0,0,1-.32-.06c-.27-.1-.72-.42-.72-1.44V13.51H8.91a1.28,1.28,0,0,1-1.31-.67A1.28,1.28,0,0,1,8,11.41l5-5.66c.67-.77,1.22-.72,1.49-.62s.71.43.71,1.45v4.24h1.54c.89,0,1.21.42,1.32.67a1.3,1.3,0,0,1-.37,1.43l-5,5.66A1.62,1.62,0,0,1,11.48,19.25Zm.06-1h0ZM14.07,6.07a2.06,2.06,0,0,0-.37.34l-5,5.66c-.18.21-.21.34-.2.37a1,1,0,0,0,.4.07h2a.5.5,0,0,1,.5.5v4.74a1,1,0,0,0,.09.51,2.66,2.66,0,0,0,.37-.34l5-5.67c.18-.2.21-.33.2-.36a.8.8,0,0,0-.4-.07h-2a.5.5,0,0,1-.5-.5V6.58A1.25,1.25,0,0,0,14.07,6.07Z"/></g><path class="cls-1" d="M12.8,22a.5.5,0,1,1,0-1,8.85,8.85,0,0,0,4.74-1.38A9,9,0,1,0,3.86,10.81a.5.5,0,1,1-1-.13A10,10,0,1,1,12.8,22Z"/><path class="cls-1" d="M3.31,12.21A.51.51,0,0,1,2.89,12L.7,8.73A.5.5,0,0,1,.83,8a.51.51,0,0,1,.7.14L3.44,11,6.29,9.1A.5.5,0,0,1,7,9.24a.49.49,0,0,1-.13.69l-3.27,2.2A.53.53,0,0,1,3.31,12.21Z"/></svg>