<svg id="Layer_1" data-name="Layer 1" xmlns="http://www.w3.org/2000/svg" viewBox="0 0 20 20"><defs><style>.cls-1{fill:#333132;}</style></defs><title>dashboard</title><path class="cls-1" d="M4.77,12.9a.51.51,0,0,1-.5-.5V9.05a.5.5,0,0,1,.5-.5.5.5,0,0,1,.5.5V12.4A.5.5,0,0,1,4.77,12.9Z"/><path class="cls-1" d="M7.16,12.9a.51.51,0,0,1-.5-.5V5.92a.5.5,0,0,1,.5-.5.5.5,0,0,1,.5.5V12.4A.5.5,0,0,1,7.16,12.9Z"/><path class="cls-1" d="M16.72,15.74H3.48a2.35,2.35,0,0,1-2.35-2.35v-8A2.35,2.35,0,0,1,3.48,3.06H16.72a2.35,2.35,0,0,1,2.35,2.35v8A2.35,2.35,0,0,1,16.72,15.74ZM3.48,4.06A1.34,1.34,0,0,0,2.13,5.41v8a1.35,1.35,0,0,0,1.35,1.35H16.72a1.36,1.36,0,0,0,1.35-1.35v-8a1.35,1.35,0,0,0-1.35-1.35Z"/><path class="cls-1" d="M13,17.91H7.16a.51.51,0,0,1-.5-.5.5.5,0,0,1,.5-.5H13a.5.5,0,0,1,.5.5A.5.5,0,0,1,13,17.91Z"/><path class="cls-1" d="M13,13.41a3.62,3.62,0,1,1,3.61-3.62A3.62,3.62,0,0,1,13,13.41Zm0-6.23a2.62,2.62,0,1,0,2.61,2.61A2.61,2.61,0,0,0,13,7.18Z"/><path class="cls-1" d="M14.92,12.32l-2.09-2H9.92v-1H13a.5.5,0,0,1,.35.14l2.24,2.17Z"/></svg>