<svg id="Layer_1" data-name="Layer 1" xmlns="http://www.w3.org/2000/svg" viewBox="0 0 24 24"><defs><style>.cls-1{fill:#333132;}</style></defs><path class="cls-1" d="M20.44,18.45H18.91a.5.5,0,0,1-.5-.5V15.42H6V18a.5.5,0,0,1-.5.5H4a2.81,2.81,0,0,1-2.82-2.81V9.87A2.81,2.81,0,0,1,4,7.06H20.44a2.82,2.82,0,0,1,2.83,2.81v5.77A2.82,2.82,0,0,1,20.44,18.45Zm-1-1h1a1.82,1.82,0,0,0,1.83-1.81V9.87a1.82,1.82,0,0,0-1.83-1.81H4A1.81,1.81,0,0,0,2.16,9.87v5.77A1.81,1.81,0,0,0,4,17.45H5V14.92a.5.5,0,0,1,.5-.5h13.4a.5.5,0,0,1,.5.5Z"/><path class="cls-1" d="M18.91,8.05H5.51a.5.5,0,0,1-.5-.5V1.49a.5.5,0,0,1,.5-.5h13.4a.5.5,0,0,1,.5.5V7.55A.5.5,0,0,1,18.91,8.05ZM6,7.05h12.4V2H6Z"/><path class="cls-1" d="M18.91,23H5.51a.5.5,0,0,1-.5-.5V14.92a.5.5,0,0,1,.5-.5h13.4a.5.5,0,0,1,.5.5v7.59A.5.5,0,0,1,18.91,23ZM6,22h12.4V15.42H6Z"/><rect class="cls-1" x="8.58" y="18.46" width="7.31" height="1"/><path class="cls-1" d="M8.58,11.19H5.26a.5.5,0,0,1-.5-.5.5.5,0,0,1,.5-.5H8.58a.5.5,0,0,1,.5.5A.5.5,0,0,1,8.58,11.19Z"/></svg>