<svg id="Layer_1" data-name="Layer 1" xmlns="http://www.w3.org/2000/svg" viewBox="0 0 24 24"><defs><style>.cls-1{fill:#333132;}</style></defs><g id="cards"><g id="Vector"><path class="cls-1" d="M19,12.9H2a.5.5,0,0,1-.5-.5.5.5,0,0,1,.5-.5H19a.5.5,0,0,1,.5.5A.5.5,0,0,1,19,12.9Z"/></g><g id="Vector-2"><path class="cls-1" d="M15.22,21.29H5.78c-3.28,0-4.28-1-4.28-4.23v-7C1.5,7.07,2.38,6,5,5.86l.81,0h9.44c3.28,0,4.28,1,4.28,4.23v7.15C19.47,20.34,18.47,21.29,15.22,21.29ZM5.78,6.84,5,6.86C3,7,2.5,7.58,2.5,10.07v7c0,2.71.52,3.23,3.28,3.23h9.44c2.7,0,3.25-.52,3.28-3.08V10.07c0-2.72-.52-3.23-3.28-3.23Z"/></g><g id="Vector-3"><path class="cls-1" d="M19,17.72a.48.48,0,0,1-.34-.14.5.5,0,0,1-.16-.36V10.07c0-2.72-.52-3.23-3.28-3.23H5.78L5,6.86a.55.55,0,0,1-.37-.14.51.51,0,0,1-.15-.37c0-3.11,1-4.06,4.28-4.06h9.44c3.28,0,4.28,1,4.28,4.23v7c0,3-.88,4-3.47,4.21ZM5.78,5.84h9.44c3.28,0,4.28,1,4.28,4.23v6.6c1.61-.2,2-.9,2-3.16v-7c0-2.72-.52-3.23-3.28-3.23H8.78c-2.51,0-3.16.44-3.27,2.55Z"/></g><g id="Vector-4"><path class="cls-1" d="M7,18.1H5.25a.5.5,0,0,1-.5-.5.5.5,0,0,1,.5-.5H7a.5.5,0,0,1,.5.5A.5.5,0,0,1,7,18.1Z"/></g><g id="Vector-5"><path class="cls-1" d="M12.55,18.1H9.11a.5.5,0,0,1-.5-.5.5.5,0,0,1,.5-.5h3.44a.5.5,0,0,1,.5.5A.5.5,0,0,1,12.55,18.1Z"/></g></g></svg>