<svg id="Layer_1" data-name="Layer 1" xmlns="http://www.w3.org/2000/svg" viewBox="0 0 24 24"><defs><style>.cls-1{fill:#333132;}</style></defs><path class="cls-1" d="M5.44,22.17a.46.46,0,0,1-.2-.05.51.51,0,0,1-.3-.45l0-3.31H4.48A3.19,3.19,0,0,1,1.3,15.18V6.25A3.19,3.19,0,0,1,4.48,3.07h15A3.19,3.19,0,0,1,22.7,6.25v8.93a3.19,3.19,0,0,1-3.18,3.18H10.19L5.76,22.05A.47.47,0,0,1,5.44,22.17Zm-1-18.1A2.19,2.19,0,0,0,2.3,6.25v8.93a2.19,2.19,0,0,0,2.18,2.18H5.4a.5.5,0,0,1,.5.49l0,2.76,3.76-3.14a.52.52,0,0,1,.32-.11h9.51a2.19,2.19,0,0,0,2.18-2.18V6.25a2.19,2.19,0,0,0-2.18-2.18Z"/><path class="cls-1" d="M7.83,12.07a.49.49,0,0,0-.2-.43,2.45,2.45,0,0,0-.72-.33A4.74,4.74,0,0,1,6.08,11a1.36,1.36,0,0,1-.84-1.22,1.15,1.15,0,0,1,.23-.7,1.41,1.41,0,0,1,.64-.49,2.35,2.35,0,0,1,.94-.17A2.12,2.12,0,0,1,8,8.59a1.4,1.4,0,0,1,.64.53,1.43,1.43,0,0,1,.23.79h-1a.66.66,0,0,0-.21-.52A.85.85,0,0,0,7,9.2a.86.86,0,0,0-.57.16.48.48,0,0,0-.21.41.47.47,0,0,0,.24.4,2.55,2.55,0,0,0,.71.3,3.08,3.08,0,0,1,1.25.64,1.28,1.28,0,0,1,.4,1,1.2,1.2,0,0,1-.48,1,2.13,2.13,0,0,1-1.3.36,2.46,2.46,0,0,1-1-.21,1.7,1.7,0,0,1-.71-.57,1.45,1.45,0,0,1-.24-.83h1c0,.54.33.81,1,.81a.91.91,0,0,0,.56-.15A.45.45,0,0,0,7.83,12.07Z"/><path class="cls-1" d="M10.85,8.46,12.11,12l1.25-3.55h1.32v4.9h-1V12l.1-2.31-1.32,3.65h-.69L10.44,9.71l.1,2.31v1.34h-1V8.46Z"/><path class="cls-1" d="M18.1,12.07a.51.51,0,0,0-.2-.43,2.69,2.69,0,0,0-.73-.33,5.09,5.09,0,0,1-.83-.33,1.37,1.37,0,0,1-.83-1.22,1.14,1.14,0,0,1,.22-.7,1.52,1.52,0,0,1,.64-.49,2.38,2.38,0,0,1,.94-.17,2.16,2.16,0,0,1,.94.19,1.46,1.46,0,0,1,.64.53,1.43,1.43,0,0,1,.22.79h-1a.66.66,0,0,0-.21-.52.84.84,0,0,0-.59-.19.91.91,0,0,0-.58.16.5.5,0,0,0-.2.41.47.47,0,0,0,.24.4,2.42,2.42,0,0,0,.71.3,3.08,3.08,0,0,1,1.25.64,1.3,1.3,0,0,1,.39,1,1.2,1.2,0,0,1-.48,1,2.1,2.1,0,0,1-1.29.36,2.46,2.46,0,0,1-1-.21,1.64,1.64,0,0,1-.71-.57,1.45,1.45,0,0,1-.24-.83h1c0,.54.32.81,1,.81a.93.93,0,0,0,.56-.15A.47.47,0,0,0,18.1,12.07Z"/></svg>