<svg id="Layer_1" data-name="Layer 1" xmlns="http://www.w3.org/2000/svg" viewBox="0 0 24 24"><defs><style>.cls-1{fill:#333132;}</style></defs><g id="vuesax_linear_trade" data-name="vuesax linear trade"><g id="trade"><g id="Vector"><path class="cls-1" d="M15.5,15.5l-.55,0a.5.5,0,0,1-.47-.46A6,6,0,0,0,9,9.52a.5.5,0,0,1-.46-.47c0-.18,0-.37,0-.55a7,7,0,1,1,7,7Zm-.07-1h.07a6,6,0,1,0-6-6v.07A7,7,0,0,1,15.43,14.5Z"/></g><g id="Vector-2"><path class="cls-1" d="M8.5,22.5a7,7,0,0,1,0-14l.55,0a7,7,0,0,1,6.43,6.42c0,.19,0,.38,0,.56A7,7,0,0,1,8.5,22.5Zm0-13a6,6,0,1,0,6,6c0-.16,0-.33,0-.49A6,6,0,0,0,9,9.52Z"/></g><g id="Vector-3"><path class="cls-1" d="M3,7.1H3A1.51,1.51,0,0,1,1.5,5.59V3A1.5,1.5,0,0,1,3,1.5H5.59a1.55,1.55,0,0,1,1.07.44,1.5,1.5,0,0,1,0,2.12L4.06,6.65A1.51,1.51,0,0,1,3,7.1ZM3,2.5a.5.5,0,0,0-.5.5V5.59A.51.51,0,0,0,3,6.1H3A.51.51,0,0,0,3.35,6L6,3.36a.51.51,0,0,0,0-.71.56.56,0,0,0-.36-.15H3Z"/></g><g id="Vector-4"><path class="cls-1" d="M18.4,22.5a1.5,1.5,0,0,1-1-2.57l2.59-2.58A1.51,1.51,0,0,1,21,16.9h0a1.52,1.52,0,0,1,1.5,1.51V21A1.5,1.5,0,0,1,21,22.5H18.4ZM21,17.9a.55.55,0,0,0-.36.15l-2.59,2.59a.51.51,0,0,0,0,.71.49.49,0,0,0,.36.15H21a.5.5,0,0,0,.5-.5V18.41a.5.5,0,0,0-.5-.51Z"/></g></g></g></svg>