<svg id="Layer_1" data-name="Layer 1" xmlns="http://www.w3.org/2000/svg" viewBox="0 0 24 24"><defs><style>.cls-1{fill:#333132;}</style></defs><g id="vuesax_linear_keyboard-open" data-name="vuesax linear keyboard-open"><g id="keyboard-open"><g id="Group"><g id="Vector"><path class="cls-1" d="M16.65,19.07H7.52A12.25,12.25,0,0,1,5.81,19C2.64,18.62,2,16.81,2,13.6v-6c0-3.22.6-5,3.77-5.38a12.31,12.31,0,0,1,1.72-.09h8.94a12.33,12.33,0,0,1,1.71.09C21.35,2.6,22,4.41,22,7.63v6c0,3.21-.6,5-3.77,5.38A13,13,0,0,1,16.65,19.07Zm-.18-1A12,12,0,0,0,18.06,18c2.27-.26,2.89-1.2,2.89-4.39v-6c0-3.19-.62-4.14-2.88-4.39a12.18,12.18,0,0,0-1.59-.08H7.34a11.11,11.11,0,0,0-1.41.08C3.66,3.49,3,4.44,3,7.63v6c0,3.19.62,4.13,2.88,4.39a14.11,14.11,0,0,0,1.59.08Z"/></g><g id="Vector-2"><path class="cls-1" d="M17,9.13H13.49a.51.51,0,0,1-.5-.5.5.5,0,0,1,.5-.5H17a.5.5,0,0,1,.5.5A.5.5,0,0,1,17,9.13Z"/></g><g id="Vector-3"><path class="cls-1" d="M17,14.6H7a.5.5,0,0,1-.5-.5.5.5,0,0,1,.5-.5H17a.5.5,0,0,1,.5.5A.5.5,0,0,1,17,14.6Z"/></g></g><g id="Vector-4"><path class="cls-1" d="M16.72,22.05H7.28a.5.5,0,0,1-.5-.5.5.5,0,0,1,.5-.5h9.44a.5.5,0,0,1,.5.5A.5.5,0,0,1,16.72,22.05Z"/></g><g id="Vector-6"><path class="cls-1" d="M7.47,9.11A.5.5,0,0,1,7,8.61a.5.5,0,0,1,.5-.5h0a.5.5,0,0,1,0,1Z"/></g><g id="Vector-7"><path class="cls-1" d="M10.58,9.11a.5.5,0,0,1-.5-.5.5.5,0,0,1,.5-.5h0a.5.5,0,0,1,0,1Z"/></g></g></g></svg>