<svg id="Layer_1" data-name="Layer 1" xmlns="http://www.w3.org/2000/svg" viewBox="0 0 24 24"><defs><style>.cls-1{fill:#333132;}</style></defs><g id="vuesax_linear_profile-2user" data-name="vuesax linear profile-2user"><g id="profile-2user"><g id="Vector"><path class="cls-1" d="M13.18,8.66H13a3.8,3.8,0,0,1-3.7-3.92A3.78,3.78,0,1,1,13.2,8.66Zm-.12-6.57a2.77,2.77,0,0,0-1.89.75,2.74,2.74,0,0,0-.89,1.93A2.78,2.78,0,0,0,13,7.66h.23a2.78,2.78,0,0,0,0-5.56Z"/></g><g id="Vector-2"><path class="cls-1" d="M18.59,8.76A.57.57,0,0,1,18,8.31a.45.45,0,0,1,.37-.55h.3a2.09,2.09,0,0,0-.15-4.18.5.5,0,0,1-.5-.5.5.5,0,0,1,.5-.5,3.09,3.09,0,0,1,.11,6.18Z"/></g><g id="Vector-3"><path class="cls-1" d="M13.18,16.74a7.67,7.67,0,0,1-3.95-1.09,3.13,3.13,0,0,1-1.58-2.59,3.15,3.15,0,0,1,1.56-2.59h0a7.65,7.65,0,0,1,7.91,0,3.13,3.13,0,0,1,1.58,2.59,3.13,3.13,0,0,1-1.56,2.59A7.81,7.81,0,0,1,13.18,16.74ZM9.76,11.31a2.17,2.17,0,0,0-1.11,1.75,2.18,2.18,0,0,0,1.12,1.75,6.7,6.7,0,0,0,6.86,0,2.16,2.16,0,0,0,1.09-1.74,2.17,2.17,0,0,0-1.11-1.75A6.66,6.66,0,0,0,9.76,11.31Z"/></g><g id="Vector-4"><path class="cls-1" d="M20,15.4a.5.5,0,0,1-.49-.4.51.51,0,0,1,.4-.59,3,3,0,0,0,1.24-.55,1.35,1.35,0,0,0,.63-.88,1.33,1.33,0,0,0-.18-1,1.3,1.3,0,0,0-.42-.42A3.12,3.12,0,0,0,19.88,11a.49.49,0,0,1-.38-.59.49.49,0,0,1,.59-.39,4.22,4.22,0,0,1,1.62.72,2.38,2.38,0,0,1,0,4,4,4,0,0,1-1.62.71Z"/></g></g></g><g id="vuesax_linear_call" data-name="vuesax linear call"><g id="call"><g id="call-2"><g id="Vector-2-2" data-name="Vector"><path class="cls-1" d="M10.13,22.91h0a5.18,5.18,0,0,1-2-.44,10.3,10.3,0,0,1-2-1.13,16.22,16.22,0,0,1-1.84-1.57,17,17,0,0,1-1.57-1.83,10.44,10.44,0,0,1-1.11-2,5.1,5.1,0,0,1-.44-2,3.4,3.4,0,0,1,.23-1.23,3.21,3.21,0,0,1,.75-1.1,2.14,2.14,0,0,1,1.46-.64,1.45,1.45,0,0,1,.66.15,1.37,1.37,0,0,1,.57.47l1.25,1.77a2,2,0,0,1,.27.47,1.47,1.47,0,0,1,.12.52,1.34,1.34,0,0,1-.19.66,2.43,2.43,0,0,1-.38.48l-.32.33a4.36,4.36,0,0,0,.41.55c.24.28.49.56.77.84s.55.53.83.77a4.21,4.21,0,0,0,.56.41l.33-.32a2.16,2.16,0,0,1,.5-.39,1.16,1.16,0,0,1,.63-.17,1.36,1.36,0,0,1,.53.11,3.1,3.1,0,0,1,.47.26l1.8,1.28a1.28,1.28,0,0,1,.46.54,1.58,1.58,0,0,1,.13.63h0a1.87,1.87,0,0,1-.18.8,3.09,3.09,0,0,1-.45.68,3,3,0,0,1-1.07.76A3.26,3.26,0,0,1,10.13,22.91ZM3.68,12.05h0a1.13,1.13,0,0,0-.76.35,2.2,2.2,0,0,0-.53.75,2.57,2.57,0,0,0-.16.86,4.08,4.08,0,0,0,.35,1.58,9.33,9.33,0,0,0,1,1.76,14.91,14.91,0,0,0,1.47,1.71,14.2,14.2,0,0,0,1.72,1.47,8.66,8.66,0,0,0,1.77,1,3.92,3.92,0,0,0,1.58.36,2.27,2.27,0,0,0,.86-.17,2.07,2.07,0,0,0,.7-.51,1.76,1.76,0,0,0,.29-.44.85.85,0,0,0,.09-.38.68.68,0,0,0-.05-.23.4.4,0,0,0-.11-.12l-1.81-1.28a1.18,1.18,0,0,0-.29-.16.25.25,0,0,0-.25,0,1.4,1.4,0,0,0-.3.23l-.42.42a.78.78,0,0,1-.58.23.7.7,0,0,1-.3-.05l-.11-.05A4.25,4.25,0,0,1,7,18.81c-.29-.24-.58-.52-.88-.81s-.56-.6-.81-.89a5.21,5.21,0,0,1-.56-.77.93.93,0,0,1,0-.1.69.69,0,0,0-.05-.13,1.07,1.07,0,0,1,0-.25.78.78,0,0,1,.24-.58l.4-.42a1.22,1.22,0,0,0,.23-.29.27.27,0,0,0,0-.14.35.35,0,0,0,0-.12A1.1,1.1,0,0,0,5.33,14L4.07,12.24a.52.52,0,0,0-.16-.14A.68.68,0,0,0,3.68,12.05Zm4.45,6.51h0ZM5.56,16Z"/></g></g></g></g></svg>