<svg id="Layer_1" data-name="Layer 1" xmlns="http://www.w3.org/2000/svg" viewBox="0 0 24 24"><defs><style>.cls-1{fill:#333132;}</style></defs><g id="Vector"><path class="cls-1" d="M19,11.06H5A3.07,3.07,0,0,1,2,8V5.48A3.08,3.08,0,0,1,5,2.42H19a3.08,3.08,0,0,1,3.06,3.06V8A3.09,3.09,0,0,1,19,11.06ZM5,3.42A2.07,2.07,0,0,0,3,5.48V8A2.07,2.07,0,0,0,5,10.06H19A2.07,2.07,0,0,0,21.06,8V5.48A2.07,2.07,0,0,0,19,3.42Z"/></g><g id="Vector-2"><path class="cls-1" d="M19,21.58H5A3.08,3.08,0,0,1,2,18.52V16A3.07,3.07,0,0,1,5,12.94H19A3.07,3.07,0,0,1,22.06,16v2.52A3.09,3.09,0,0,1,19,21.58ZM5,13.94A2.07,2.07,0,0,0,3,16v2.52A2.07,2.07,0,0,0,5,20.58H19a2.08,2.08,0,0,0,2.06-2.07V16A2.07,2.07,0,0,0,19,13.94Z"/></g><g id="Vector-3"><path class="cls-1" d="M6.26,8.19a.5.5,0,0,1-.5-.5V5.78a.5.5,0,0,1,.5-.5.5.5,0,0,1,.5.5V7.69A.5.5,0,0,1,6.26,8.19Z"/></g><g id="Vector-4"><path class="cls-1" d="M10.09,8.19a.5.5,0,0,1-.5-.5V5.78a.5.5,0,0,1,.5-.5.5.5,0,0,1,.5.5V7.69A.5.5,0,0,1,10.09,8.19Z"/></g><g id="Vector-5"><path class="cls-1" d="M6.26,18.71a.5.5,0,0,1-.5-.5V16.3a.5.5,0,0,1,.5-.5.5.5,0,0,1,.5.5v1.91A.5.5,0,0,1,6.26,18.71Z"/></g><g id="Vector-6"><path class="cls-1" d="M10.09,18.71a.5.5,0,0,1-.5-.5V16.3a.5.5,0,0,1,.5-.5.5.5,0,0,1,.5.5v1.91A.5.5,0,0,1,10.09,18.71Z"/></g><g id="Vector-7"><path class="cls-1" d="M17.74,7.24H13.91a.51.51,0,0,1-.5-.5.5.5,0,0,1,.5-.5h3.83a.5.5,0,0,1,.5.5A.51.51,0,0,1,17.74,7.24Z"/></g><g id="Vector-8"><path class="cls-1" d="M17.74,17.75H13.91a.5.5,0,0,1-.5-.5.51.51,0,0,1,.5-.5h3.83a.51.51,0,0,1,.5.5A.5.5,0,0,1,17.74,17.75Z"/></g></svg>