<svg id="Layer_1" data-name="Layer 1" xmlns="http://www.w3.org/2000/svg" viewBox="0 0 24 24"><defs><style>.cls-1{fill:#333132;}</style></defs><g id="vuesax_linear_cpu-setting" data-name="vuesax linear cpu-setting"><g id="cpu-setting"><g id="Vector"><path class="cls-1" d="M13.15,20.31h0l-3.48,0c-4.27,0-6.09-1.82-6.09-6.1V9.37c0-4.28,1.82-6.1,6.1-6.1h4.8c4.28,0,6.1,1.82,6.1,6.1v3a.5.5,0,0,1-1,0v-3c0-3.72-1.38-5.1-5.1-5.1H9.68c-3.72,0-5.1,1.38-5.1,5.1v4.8c0,3.72,1.38,5.1,5.1,5.1l3.48,0a.49.49,0,0,1,.49.5A.5.5,0,0,1,13.15,20.31Z"/></g><g id="Vector-2"><path class="cls-1" d="M8.07,16.62a.52.52,0,0,1-.35-.14,3.94,3.94,0,0,1-1.14-3.27V10.27c0-2.77,1.23-4,4-4h3a3.86,3.86,0,0,1,3.21,1.15.5.5,0,0,1-.72.7,2.87,2.87,0,0,0-2.43-.85H10.58c-2.22,0-3,.79-3,3v3a2.94,2.94,0,0,0,.84,2.49.5.5,0,0,1-.35.86Z"/></g><g id="Vector-3"><path class="cls-1" d="M8.09,4.27a.5.5,0,0,1-.5-.5v-2a.5.5,0,1,1,1,0v2A.5.5,0,0,1,8.09,4.27Z"/></g><g id="Vector-4"><path class="cls-1" d="M12.08,4.27a.5.5,0,0,1-.5-.5v-2a.5.5,0,1,1,1,0v2A.5.5,0,0,1,12.08,4.27Z"/></g><g id="Vector-5"><path class="cls-1" d="M16.08,4.27a.5.5,0,0,1-.5-.5v-2a.5.5,0,1,1,1,0v2A.5.5,0,0,1,16.08,4.27Z"/></g><g id="Vector-6"><path class="cls-1" d="M22.08,8.27h-2a.5.5,0,0,1,0-1h2a.5.5,0,0,1,0,1Z"/></g><g id="Vector-7"><path class="cls-1" d="M8.09,22.27a.5.5,0,0,1-.5-.5v-2a.5.5,0,0,1,1,0v2A.5.5,0,0,1,8.09,22.27Z"/></g><g id="Vector-8"><path class="cls-1" d="M4.08,8.27h-2a.5.5,0,0,1,0-1h2a.5.5,0,0,1,0,1Z"/></g><g id="Vector-9"><path class="cls-1" d="M4.08,12.27h-2a.5.5,0,0,1,0-1h2a.5.5,0,0,1,0,1Z"/></g><g id="Vector-10"><path class="cls-1" d="M4.08,16.27h-2a.5.5,0,0,1,0-1h2a.5.5,0,1,1,0,1Z"/></g><g id="Vector-11"><path class="cls-1" d="M16.79,18.86a2.09,2.09,0,1,1,2.09-2.09A2.1,2.1,0,0,1,16.79,18.86Zm0-3.18a1.09,1.09,0,1,0,1.09,1.09A1.09,1.09,0,0,0,16.79,15.68Z"/></g><g id="Vector-12"><path class="cls-1" d="M18.48,22.26a1.12,1.12,0,0,1-.36-.05,1.33,1.33,0,0,1-.84-.64l-.06-.09a.3.3,0,0,1,0-.1.43.43,0,0,0-.54-.26.42.42,0,0,0-.26.26.3.3,0,0,1,0,.1l-.06.1a1.41,1.41,0,0,1-1.89.5l-.91-.54a1.44,1.44,0,0,1-.7-.9,1.47,1.47,0,0,1,.14-1.14.64.64,0,0,0,.11-.58c-.07-.12-.29-.18-.56-.19A1.49,1.49,0,0,1,11,17.26v-1a1.5,1.5,0,0,1,1.5-1.5.62.62,0,0,0,.54-.19.64.64,0,0,0-.1-.57,1.47,1.47,0,0,1-.15-1.14,1.51,1.51,0,0,1,.69-.91l.92-.53a1.38,1.38,0,0,1,1.89.5l.06.09a.42.42,0,0,1,0,.1.42.42,0,0,0,.21.24.4.4,0,0,0,.32,0,.44.44,0,0,0,.27-.26.42.42,0,0,1,0-.1l.06-.1a1.4,1.4,0,0,1,1.89-.49l.91.53a1.49,1.49,0,0,1,.56,2,.64.64,0,0,0-.11.58.62.62,0,0,0,.54.19,1.5,1.5,0,0,1,1.5,1.5v.93a1.5,1.5,0,0,1-1.5,1.5.62.62,0,0,0-.54.19.64.64,0,0,0,.1.57,1.51,1.51,0,0,1-.54,2.05l-.92.53A1.31,1.31,0,0,1,18.48,22.26ZM18.1,21l0,.06a.38.38,0,0,0,.24.19.42.42,0,0,0,.29,0l.91-.53a.53.53,0,0,0,.24-.31.56.56,0,0,0-.05-.38,1.41,1.41,0,0,1,1.3-2.26.5.5,0,0,0,.5-.5V16.3a.5.5,0,0,0-.5-.5,1.56,1.56,0,0,1-1.41-.69,1.57,1.57,0,0,1,.11-1.57.51.51,0,0,0-.19-.69l-.91-.53a.4.4,0,0,0-.53.15l0,.06a1.44,1.44,0,0,1-.86.83,1.47,1.47,0,0,1-1.09-.07,1.43,1.43,0,0,1-.69-.76l0-.06a.4.4,0,0,0-.53-.15l-.91.53a.53.53,0,0,0-.24.31.51.51,0,0,0,0,.38,1.57,1.57,0,0,1,.11,1.57,1.56,1.56,0,0,1-1.41.69.5.5,0,0,0-.5.5v.93h0a.5.5,0,0,0,.49.49A1.41,1.41,0,0,1,13.79,20a.51.51,0,0,0,0,.38.53.53,0,0,0,.24.31l.91.53a.4.4,0,0,0,.53-.15l0-.06a1.42,1.42,0,0,1,1.95-.76A1.43,1.43,0,0,1,18.1,21Z"/></g></g></g></svg>