<svg id="Layer_1" data-name="Layer 1" xmlns="http://www.w3.org/2000/svg" viewBox="0 0 24 24"><defs><style>.cls-1{fill:#333132;}</style></defs><g id="vuesax_linear_keyboard" data-name="vuesax linear keyboard"><g id="keyboard"><g id="Vector"><path class="cls-1" d="M7.3,20.84a13.21,13.21,0,0,1-1.53-.09C2.6,20.4,2,18.58,2,15.34v-6C2,6.1,2.6,4.28,5.78,3.93A12.31,12.31,0,0,1,7.5,3.84h9a12.62,12.62,0,0,1,1.73.09C21.39,4.28,22,6.1,22,9.34v6c0,3.24-.6,5.06-3.78,5.41a12.39,12.39,0,0,1-1.72.09H7.3Zm0-16a11.12,11.12,0,0,0-1.41.09C3.62,5.18,3,6.13,3,9.34v6c0,3.21.63,4.16,2.9,4.41a10.73,10.73,0,0,0,1.6.09h9a10.58,10.58,0,0,0,1.6-.09c2.28-.25,2.9-1.2,2.9-4.41v-6c0-3.21-.62-4.16-2.89-4.41a10.73,10.73,0,0,0-1.6-.09H7.31Z"/></g><g id="Vector-2"><path class="cls-1" d="M17,10.84h-3.5a.5.5,0,1,1,0-1H17a.5.5,0,0,1,0,1Z"/></g><g id="Vector-3"><path class="cls-1" d="M17,16.34H7a.5.5,0,1,1,0-1H17a.5.5,0,0,1,0,1Z"/></g><g id="Vector-4"><path class="cls-1" d="M10.09,10.84a.5.5,0,0,1-.5-.5.5.5,0,0,1,.5-.5h0a.5.5,0,0,1,0,1Z"/></g><g id="Vector-5"><path class="cls-1" d="M7.09,10.84a.5.5,0,0,1-.5-.5.5.5,0,0,1,.5-.5h0a.5.5,0,0,1,0,1Z"/></g></g></g></svg>