<svg id="Layer_1" data-name="Layer 1" xmlns="http://www.w3.org/2000/svg" viewBox="0 0 24 24"><defs><style>.cls-1{fill:#333132;}</style></defs><path class="cls-1" d="M11.39,14.45a3.31,3.31,0,1,1,3.31-3.31A3.32,3.32,0,0,1,11.39,14.45Zm0-5.62a2.31,2.31,0,1,0,2.31,2.31A2.31,2.31,0,0,0,11.39,8.83Z"/><path class="cls-1" d="M11.38,21.29a1.85,1.85,0,0,1-1.85-1.85v-1a7.46,7.46,0,0,1-2-.82l-.72.72a1.84,1.84,0,0,1-1.31.55h0A1.86,1.86,0,0,1,3.67,17a1.84,1.84,0,0,1,.55-1.31L4.93,15a7.49,7.49,0,0,1-.83-2h-1a1.86,1.86,0,1,1,0-3.71h1a7.85,7.85,0,0,1,.83-2l-.72-.71a1.85,1.85,0,0,1-.54-1.33A1.79,1.79,0,0,1,4.22,4,1.9,1.9,0,0,1,6.83,4l.72.72a7.41,7.41,0,0,1,2-.82v-1a1.86,1.86,0,1,1,3.72,0v1a7.17,7.17,0,0,1,2,.83L15.94,4a1.83,1.83,0,0,1,1.3-.55A1.92,1.92,0,0,1,18.57,4a1.84,1.84,0,0,1,.54,1.31,1.87,1.87,0,0,1-.54,1.32l-.72.72a7.52,7.52,0,0,1,.82,2h1a1.86,1.86,0,0,1,0,3.71h-1l-.06.21a.5.5,0,0,1-.62.34.49.49,0,0,1-.34-.62c.05-.17.09-.35.13-.53a.49.49,0,0,1,.49-.4h1.42a.86.86,0,0,0,.85-.86.85.85,0,0,0-.85-.85H18.27a.49.49,0,0,1-.49-.41,6.33,6.33,0,0,0-1-2.36.5.5,0,0,1,.06-.64l1-1a.86.86,0,0,0,.25-.61.79.79,0,0,0-.24-.59.88.88,0,0,0-.62-.26.8.8,0,0,0-.59.25l-1,1a.51.51,0,0,1-.64.07,6.33,6.33,0,0,0-2.37-1,.51.51,0,0,1-.4-.49V2.84a.86.86,0,1,0-1.72,0V4.26a.51.51,0,0,1-.4.49,6.5,6.5,0,0,0-2.38,1,.5.5,0,0,1-.63-.07l-1-1a.87.87,0,0,0-1.2,0,.85.85,0,0,0-.26.61.8.8,0,0,0,.25.61l1,1A.5.5,0,0,1,6,7.5,6.77,6.77,0,0,0,5,9.88a.49.49,0,0,1-.49.41H3.09a.86.86,0,1,0,0,1.71H4.5a.49.49,0,0,1,.49.4,6.43,6.43,0,0,0,1,2.37.47.47,0,0,1,.09.28.49.49,0,0,1-.15.36l-1,1a.76.76,0,0,0-.25.59.86.86,0,0,0,.25.61.84.84,0,0,0,.59.26.93.93,0,0,0,.62-.26l1-1a.49.49,0,0,1,.63-.06,6.44,6.44,0,0,0,2.37,1,.49.49,0,0,1,.4.49v1.42a.86.86,0,0,0,1.72,0V18a.49.49,0,0,1,.4-.49,6.25,6.25,0,0,0,.62-.16.49.49,0,0,1,.62.34.5.5,0,0,1-.33.62l-.31.09v1A1.86,1.86,0,0,1,11.38,21.29Z"/><path class="cls-1" d="M18,22.61a4.95,4.95,0,1,1,4.95-4.95A5,5,0,0,1,18,22.61Zm0-8.9a3.95,3.95,0,1,0,3.95,3.95A4,4,0,0,0,18,13.71Z"/><path class="cls-1" d="M18,20.42a.5.5,0,0,1-.5-.5V15.4a.5.5,0,0,1,.5-.5.5.5,0,0,1,.5.5v4.52A.51.51,0,0,1,18,20.42Z"/><path class="cls-1" d="M20.22,18.16H15.7a.5.5,0,0,1-.5-.5.5.5,0,0,1,.5-.5h4.52a.5.5,0,0,1,.5.5A.51.51,0,0,1,20.22,18.16Z"/></svg>