<svg id="Layer_1" data-name="Layer 1" xmlns="http://www.w3.org/2000/svg" viewBox="0 0 24 24"><defs><style>.cls-1{fill:#333132;}</style></defs><path class="cls-1" d="M12,14.8a2.33,2.33,0,1,1,2.33-2.33A2.34,2.34,0,0,1,12,14.8Zm0-3.66a1.33,1.33,0,1,0,1.33,1.33A1.34,1.34,0,0,0,12,11.14Z"/><path class="cls-1" d="M12,20a7.5,7.5,0,1,1,7.49-7.5A7.51,7.51,0,0,1,12,20ZM12,6a6.5,6.5,0,1,0,6.49,6.49A6.5,6.5,0,0,0,12,6Z"/><path class="cls-1" d="M12,22.06a9.59,9.59,0,1,1,9.59-9.59A9.6,9.6,0,0,1,12,22.06ZM12,3.88a8.59,8.59,0,1,0,8.59,8.59A8.6,8.6,0,0,0,12,3.88Z"/><path class="cls-1" d="M12,3.88a.5.5,0,0,1-.5-.5v-2a.5.5,0,1,1,1,0v2A.5.5,0,0,1,12,3.88Z"/><path class="cls-1" d="M12,11.14a.5.5,0,0,1-.5-.5V5.48a.5.5,0,0,1,1,0v5.16A.5.5,0,0,1,12,11.14Z"/><path class="cls-1" d="M4.89,7.3a.45.45,0,0,1-.31-.11L3,5.93a.5.5,0,1,1,.62-.78L5.21,6.41a.51.51,0,0,1,.07.71A.48.48,0,0,1,4.89,7.3Z"/><path class="cls-1" d="M10.57,11.83a.45.45,0,0,1-.31-.11l-4-3.22a.5.5,0,0,1,.62-.78l4,3.22a.5.5,0,0,1,.08.7A.48.48,0,0,1,10.57,11.83Z"/><path class="cls-1" d="M1.16,15.44a.5.5,0,0,1-.11-1L3,14a.49.49,0,0,1,.6.37.5.5,0,0,1-.38.6l-2,.45Z"/><path class="cls-1" d="M5.18,14.53a.51.51,0,0,1-.49-.39.5.5,0,0,1,.38-.6l5-1.15a.51.51,0,0,1,.6.38.5.5,0,0,1-.38.59l-5,1.15Z"/><path class="cls-1" d="M7.18,23a.54.54,0,0,1-.22,0,.5.5,0,0,1-.23-.67l.88-1.83a.49.49,0,0,1,.66-.23.5.5,0,0,1,.24.67L7.63,22.7A.51.51,0,0,1,7.18,23Z"/><path class="cls-1" d="M9,19.27a.41.41,0,0,1-.21-.05.5.5,0,0,1-.24-.66l2.25-4.66a.5.5,0,0,1,.9.43L9.42,19A.51.51,0,0,1,9,19.27Z"/><path class="cls-1" d="M16.82,23a.51.51,0,0,1-.45-.29l-.88-1.82a.5.5,0,0,1,.24-.67.49.49,0,0,1,.66.23l.88,1.83a.5.5,0,0,1-.23.67A.54.54,0,0,1,16.82,23Z"/><path class="cls-1" d="M15,19.27a.51.51,0,0,1-.46-.28l-2.24-4.66a.5.5,0,0,1,.9-.43l2.25,4.66a.5.5,0,0,1-.24.66A.41.41,0,0,1,15,19.27Z"/><path class="cls-1" d="M22.84,15.44h-.11l-2-.45a.5.5,0,0,1-.38-.6A.49.49,0,0,1,21,14l2,.45a.49.49,0,0,1,.37.6A.48.48,0,0,1,22.84,15.44Z"/><path class="cls-1" d="M18.82,14.53l-.11,0-5-1.15a.5.5,0,0,1-.38-.59.5.5,0,0,1,.6-.38l5,1.15a.5.5,0,0,1,.38.6A.51.51,0,0,1,18.82,14.53Z"/><path class="cls-1" d="M19.11,7.3a.48.48,0,0,1-.39-.18.51.51,0,0,1,.07-.71l1.59-1.26a.5.5,0,1,1,.62.78L19.42,7.19A.45.45,0,0,1,19.11,7.3Z"/><path class="cls-1" d="M13.43,11.83a.48.48,0,0,1-.39-.19.5.5,0,0,1,.08-.7l4-3.22a.5.5,0,1,1,.62.78l-4,3.22A.45.45,0,0,1,13.43,11.83Z"/></svg>