<svg id="Layer_1" data-name="Layer 1" xmlns="http://www.w3.org/2000/svg" viewBox="0 0 24 24"><defs><style>.cls-1{fill:#f7a42b;}.cls-2{fill:#fff;}</style></defs><path class="cls-1" d="M10.26,4.39,2.64,17.6a2,2,0,0,0,1.74,3H19.62a2,2,0,0,0,1.74-3L13.74,4.39A2,2,0,0,0,10.26,4.39Z"/><g id="Vector-5"><path class="cls-2" d="M12,14.22a.76.76,0,0,1-.75-.75V8.71a.75.75,0,1,1,1.5,0v4.76A.76.76,0,0,1,12,14.22Z"/></g><g id="Vector-6"><path class="cls-2" d="M12,17.46A.75.75,0,0,1,12,16h0a.75.75,0,0,1,0,1.5Z"/></g></svg>