<svg id="Layer_1" data-name="Layer 1" xmlns="http://www.w3.org/2000/svg" viewBox="0 0 24 24"><defs><style>.cls-1{fill:#333132;}</style></defs><g id="Vector"><path class="cls-1" d="M6.46,9.36a.5.5,0,0,1-.5-.5V7A.5.5,0,0,1,7,7V8.86A.5.5,0,0,1,6.46,9.36Z"/></g><g id="Vector-2"><path class="cls-1" d="M10.15,9.36a.51.51,0,0,1-.5-.5V7a.5.5,0,0,1,.5-.5.5.5,0,0,1,.5.5V8.86A.5.5,0,0,1,10.15,9.36Z"/></g><g id="Vector-3"><path class="cls-1" d="M18,22.05H6a3.71,3.71,0,0,1-3.71-3.71v-12A3.71,3.71,0,0,1,6,2.59H18a3.71,3.71,0,0,1,3.71,3.7V18.34A3.71,3.71,0,0,1,18,22.05ZM6,3.59a2.7,2.7,0,0,0-2.71,2.7V18.34A2.71,2.71,0,0,0,6,21.05H18a2.71,2.71,0,0,0,2.71-2.71v-12A2.7,2.7,0,0,0,18,3.59Z"/></g><g id="Vector-4"><path class="cls-1" d="M6.46,18.36a.5.5,0,0,1-.5-.5V16a.5.5,0,0,1,1,0v1.85A.5.5,0,0,1,6.46,18.36Z"/></g><g id="Vector-5"><path class="cls-1" d="M10.15,18.36a.51.51,0,0,1-.5-.5V16a.51.51,0,0,1,.5-.5.5.5,0,0,1,.5.5v1.85A.5.5,0,0,1,10.15,18.36Z"/></g><g id="Vector-6"><path class="cls-1" d="M17.54,8.43H13.85a.5.5,0,0,1-.5-.5.5.5,0,0,1,.5-.5h3.69a.5.5,0,0,1,.5.5A.5.5,0,0,1,17.54,8.43Z"/></g><g id="Vector-7"><path class="cls-1" d="M17.54,17.43H13.85a.5.5,0,0,1-.5-.5.5.5,0,0,1,.5-.5h3.69a.5.5,0,0,1,.5.5A.5.5,0,0,1,17.54,17.43Z"/></g><g id="Vector-8"><path class="cls-1" d="M21.23,12.82H2.77a.5.5,0,0,1-.5-.5.5.5,0,0,1,.5-.5H21.23a.5.5,0,0,1,.5.5A.5.5,0,0,1,21.23,12.82Z"/></g></svg>