<svg id="Layer_1" data-name="Layer 1" xmlns="http://www.w3.org/2000/svg" viewBox="0 0 24 24"><defs><style>.cls-1{fill:#333132;}</style></defs><path class="cls-1" d="M18.73,22.58H5.87a3.82,3.82,0,0,1-3.82-3.81V5.91A3.82,3.82,0,0,1,5.87,2.09H18.73a3.82,3.82,0,0,1,3.81,3.82V18.77A3.82,3.82,0,0,1,18.73,22.58ZM5.87,3.09A2.83,2.83,0,0,0,3.05,5.91V18.77a2.82,2.82,0,0,0,2.82,2.81H18.73a2.81,2.81,0,0,0,2.81-2.81V5.91a2.82,2.82,0,0,0-2.81-2.82Z"/><path class="cls-1" d="M6.7,15.16a.5.5,0,0,1-.35-.85l3.6-3.6a.51.51,0,0,1,.71,0l2.64,2.65,4.78-4.79a.5.5,0,0,1,.71.71l-5.14,5.14a.5.5,0,0,1-.7,0L10.3,11.77,7.06,15A.51.51,0,0,1,6.7,15.16Z"/></svg>