<svg id="Layer_1" data-name="Layer 1" xmlns="http://www.w3.org/2000/svg" viewBox="0 0 24 24"><defs><style>.cls-1{fill:#333132;}</style></defs><path class="cls-1" d="M18.33,21.13H6.06a3,3,0,0,1-3-3V9.12a3,3,0,0,1,3-3H18.33a3,3,0,0,1,3,3v9.05A3,3,0,0,1,18.33,21.13ZM6.06,7.16a2,2,0,0,0-2,2v9.05a2,2,0,0,0,2,2H18.33a2,2,0,0,0,2-2V9.12a2,2,0,0,0-2-2Z"/><path class="cls-1" d="M3.4,16.27a2.79,2.79,0,1,1,0-5.57.5.5,0,1,1,0,1,1.79,1.79,0,1,0,0,3.57.5.5,0,0,1,.5.5A.51.51,0,0,1,3.4,16.27Z"/><path class="cls-1" d="M20.79,16.43a.5.5,0,0,1-.5-.5.5.5,0,0,1,.5-.5,1.79,1.79,0,0,0,0-3.57.5.5,0,0,1-.5-.5.5.5,0,0,1,.5-.5,2.79,2.79,0,0,1,0,5.57Z"/><path class="cls-1" d="M8.28,14.5a2.41,2.41,0,1,1,2.41-2.41A2.41,2.41,0,0,1,8.28,14.5Zm0-3.82a1.41,1.41,0,1,0,1.41,1.41A1.41,1.41,0,0,0,8.28,10.68Z"/><path class="cls-1" d="M16.59,14.5A2.41,2.41,0,1,1,19,12.09,2.41,2.41,0,0,1,16.59,14.5Zm0-3.82A1.41,1.41,0,1,0,18,12.09,1.41,1.41,0,0,0,16.59,10.68Z"/><path class="cls-1" d="M14.83,17.52H10a.5.5,0,0,1-.5-.5.5.5,0,0,1,.5-.5h4.79a.5.5,0,0,1,.5.5A.5.5,0,0,1,14.83,17.52Z"/><path class="cls-1" d="M12.43,7.16a.5.5,0,0,1-.5-.5V4.94a.51.51,0,0,1,.5-.5.5.5,0,0,1,.5.5V6.66A.5.5,0,0,1,12.43,7.16Z"/><path class="cls-1" d="M12.43,5.15A2.05,2.05,0,1,1,14.48,3.1,2.05,2.05,0,0,1,12.43,5.15Zm0-3.1A1.05,1.05,0,1,0,13.48,3.1,1,1,0,0,0,12.43,2.05Z"/></svg>