<svg id="Layer_1" data-name="Layer 1" xmlns="http://www.w3.org/2000/svg" viewBox="0 0 24 24"><defs><style>.cls-1{fill:#333132;}</style></defs><g id="vuesax_linear_format-circle" data-name="vuesax linear format-circle"><g id="format-circle"><g id="Vector"><path class="cls-1" d="M18.65,8.89A3.36,3.36,0,0,1,15.3,5.54,3.41,3.41,0,0,1,16,3.46l.06-.06a3.36,3.36,0,0,1,4.64-.51A3.31,3.31,0,0,1,22,5.54a3.36,3.36,0,0,1-3.34,3.35ZM16.76,4.14A2.35,2.35,0,0,0,17,7.2a2.37,2.37,0,0,0,1.66.69h0A2.34,2.34,0,0,0,21,5.53h0a2.28,2.28,0,0,0-.9-1.85,2.34,2.34,0,0,0-3.28.4Z"/></g><g id="Vector-2"><path class="cls-1" d="M5.35,8.89A3.35,3.35,0,0,1,2,5.54,3.36,3.36,0,0,1,5.35,2.18h0A3.35,3.35,0,0,1,8,3.46,3.39,3.39,0,0,1,8.7,5.53h0A3.36,3.36,0,0,1,5.35,8.89Zm0-5.71h0A2.34,2.34,0,0,0,3,5.54,2.35,2.35,0,0,0,5.35,7.89h0A2.36,2.36,0,0,0,7.7,5.53h0a2.38,2.38,0,0,0-.5-1.45A2.34,2.34,0,0,0,5.35,3.18ZM8.7,5.53h0Z"/></g><g id="Vector-3"><path class="cls-1" d="M18.66,22.18A3.33,3.33,0,0,1,16.08,21L16,20.9a3.35,3.35,0,0,1,4.7-4.7l.07.06A3.36,3.36,0,0,1,22,18.83a3.28,3.28,0,0,1-1,2.37,3.32,3.32,0,0,1-2.36,1Zm-1.9-1.95a.17.17,0,0,1,.06.06,2.49,2.49,0,0,0,1.85.89,2.29,2.29,0,0,0,1.65-.69A2.32,2.32,0,0,0,21,18.84h0A2.34,2.34,0,0,0,20.11,17L20,16.94a2.35,2.35,0,0,0-3.28,3.29Z"/></g><g id="Vector-4"><path class="cls-1" d="M5.35,22.18a3.34,3.34,0,0,1-2.13-5.92l.06-.06A3.37,3.37,0,0,1,8,16.76a3.35,3.35,0,0,1-2.64,5.42ZM4,16.94,3.9,17a2.34,2.34,0,1,0,3.3,3.28,2.36,2.36,0,0,0,.5-1.45h0a2.38,2.38,0,0,0-.5-1.45,2.32,2.32,0,0,0-1.57-.88A2.36,2.36,0,0,0,4,16.94Z"/></g><g id="Vector-5"><path class="cls-1" d="M12,22.18A10,10,0,0,1,7.36,21a.5.5,0,0,1-.16-.76A2.35,2.35,0,0,0,3.9,17a.5.5,0,0,1-.41.09.49.49,0,0,1-.34-.25,10,10,0,0,1,0-9.29.53.53,0,0,1,.34-.26.5.5,0,0,1,.41.1,2.35,2.35,0,0,0,3.3-3.3.49.49,0,0,1-.1-.41.5.5,0,0,1,.26-.34,10,10,0,0,1,9.29,0,.51.51,0,0,1,.16.75,2.35,2.35,0,0,0,3.29,3.3.53.53,0,0,1,.42-.1.51.51,0,0,1,.33.26,10,10,0,0,1,0,9.29.47.47,0,0,1-.33.25A.52.52,0,0,1,20.1,17a2.34,2.34,0,0,0-3.29,3.29.52.52,0,0,1,.09.42.51.51,0,0,1-.25.34A10,10,0,0,1,12,22.18ZM8.32,20.39a8.94,8.94,0,0,0,7.37,0A3.3,3.3,0,0,1,16,16.76a3.35,3.35,0,0,1,4.19-.89A8.86,8.86,0,0,0,21,12.19h0a8.83,8.83,0,0,0-.79-3.68A3.34,3.34,0,0,1,15.69,4,8.94,8.94,0,0,0,8.32,4,3.35,3.35,0,0,1,3.79,8.5a9,9,0,0,0,0,7.37,3.35,3.35,0,0,1,4.53,4.52Z"/></g></g></g></svg>