<svg id="Layer_1" data-name="Layer 1" xmlns="http://www.w3.org/2000/svg" viewBox="0 0 24 24"><defs><style>.cls-1{fill:#333132;}</style></defs><path class="cls-1" d="M14.17,7.31H9.69a2.62,2.62,0,0,1,0-5.23h4.48a2.62,2.62,0,0,1,0,5.23ZM9.69,3.08a1.62,1.62,0,0,0,0,3.23h4.48a1.62,1.62,0,0,0,0-3.23Z"/><path class="cls-1" d="M12.82,20.83H4a2.65,2.65,0,0,1-2.65-2.65V9A2.65,2.65,0,0,1,4,6.33H20A2.65,2.65,0,0,1,22.66,9V11.6a.5.5,0,0,1-.5.5.5.5,0,0,1-.5-.5V9A1.65,1.65,0,0,0,20,7.33H4A1.65,1.65,0,0,0,2.34,9v9.2A1.65,1.65,0,0,0,4,19.83h8.83a.51.51,0,0,1,.5.5A.5.5,0,0,1,12.82,20.83Z"/><path class="cls-1" d="M15.73,12.1H1.84a.5.5,0,0,1-.5-.5.51.51,0,0,1,.5-.5H15.73a.5.5,0,0,1,.5.5A.5.5,0,0,1,15.73,12.1Z"/><path class="cls-1" d="M15.14,21.51a.5.5,0,0,1-.5-.5v-4.4a.5.5,0,0,1,.5-.5.51.51,0,0,1,.5.5V21A.5.5,0,0,1,15.14,21.51Z"/><path class="cls-1" d="M18.34,21.51a.5.5,0,0,1-.5-.5V12.5a.5.5,0,0,1,1,0V21A.5.5,0,0,1,18.34,21.51Z"/><path class="cls-1" d="M21.48,21.51A.5.5,0,0,1,21,21V15.09a.5.5,0,0,1,.5-.5.5.5,0,0,1,.5.5V21A.5.5,0,0,1,21.48,21.51Z"/><path class="cls-1" d="M12.75,14.56H11.11a.5.5,0,0,1-.5-.5.51.51,0,0,1,.5-.5h1.64a.5.5,0,0,1,.5.5A.5.5,0,0,1,12.75,14.56Z"/></svg>