<svg id="Layer_1" data-name="Layer 1" xmlns="http://www.w3.org/2000/svg" viewBox="0 0 24 24"><defs><style>.cls-1{fill:#333132;}</style></defs><g id="vuesax_linear_cloud-connection" data-name="vuesax linear cloud-connection"><g id="cloud-connection"><g id="Group"><g id="Vector"><path class="cls-1" d="M16.07,16.08H6.36a3.75,3.75,0,0,1-.61-7.41A5.74,5.74,0,0,1,7,3a6.29,6.29,0,0,1,6.27-1.64A5.68,5.68,0,0,1,17.18,6a5.16,5.16,0,0,1,4,5.05,5.12,5.12,0,0,1-5.12,5.08ZM6.39,9.59a2.75,2.75,0,0,0,0,5.49H16A4.08,4.08,0,0,0,19,13.9a4.13,4.13,0,0,0-2.28-7,.5.5,0,0,1-.42-.41A4.87,4.87,0,0,0,13,2.29,5.27,5.27,0,0,0,7.72,3.67a4.86,4.86,0,0,0-.84,5.25.5.5,0,0,1-.3.64Z"/></g></g><g id="Vector-2"><path class="cls-1" d="M12,19.08a.5.5,0,0,1-.5-.5v-3a.5.5,0,0,1,.5-.5.5.5,0,0,1,.5.5v3A.5.5,0,0,1,12,19.08Z"/></g><g id="Vector-3"><path class="cls-1" d="M12,23.08a2.5,2.5,0,1,1,2.5-2.5A2.51,2.51,0,0,1,12,23.08Zm0-4a1.5,1.5,0,1,0,1.5,1.5A1.5,1.5,0,0,0,12,19.08Z"/></g><g id="Vector-4"><path class="cls-1" d="M18,21.08H14a.5.5,0,0,1,0-1h4a.5.5,0,0,1,0,1Z"/></g><g id="Vector-5"><path class="cls-1" d="M10,21.08H6a.5.5,0,0,1,0-1h4a.5.5,0,1,1,0,1Z"/></g></g></g></svg>