<svg id="Layer_1" data-name="Layer 1" xmlns="http://www.w3.org/2000/svg" viewBox="0 0 24 24"><defs><style>.cls-1{fill:#333132;}</style></defs><path class="cls-1" d="M12,7.7c-4.21,0-8.48-1-8.48-2.9S7.76,1.91,12,1.91s8.46,1,8.46,2.89S16.17,7.7,12,7.7Zm0-4.79c-4.84,0-7.48,1.25-7.48,1.89S7.06,6.7,12,6.7c4.48,0,7.46-1.15,7.46-1.9S16.8,2.91,12,2.91Z"/><path class="cls-1" d="M12,12.61c-4.21,0-8.48-1-8.48-2.89V4.8h1c0,.66,2.57,1.9,7.48,1.9,4.48,0,7.46-1.15,7.46-1.9h1V9.72C20.43,11.61,16.17,12.61,12,12.61ZM4.49,6.24V9.72c0,.64,2.64,1.89,7.48,1.89s7.46-1.25,7.46-1.89V6.24C16.42,8.16,7.51,8.16,4.49,6.24Z"/><path class="cls-1" d="M12,17.51c-4.21,0-8.48-1-8.48-2.88V9.72h1c0,.64,2.64,1.89,7.48,1.89s7.46-1.25,7.46-1.89h1v4.91C20.43,16.52,16.17,17.51,12,17.51ZM4.49,11.16v3.47c0,.66,2.57,1.88,7.48,1.88s7.46-1.22,7.46-1.88V11.16C16.42,13.07,7.51,13.07,4.49,11.16Z"/><path class="cls-1" d="M12,22.43c-4.21,0-8.48-1-8.48-2.88V14.63h1c0,.66,2.57,1.88,7.48,1.88s7.46-1.22,7.46-1.88h1v4.92C20.43,21.44,16.17,22.43,12,22.43ZM4.49,16.07v3.48c0,.64,2.64,1.88,7.48,1.88s7.46-1.24,7.46-1.88V16.07C16.42,18,7.51,18,4.49,16.07Z"/></svg>