<svg id="Layer_1" data-name="Layer 1" xmlns="http://www.w3.org/2000/svg" viewBox="0 0 24 24"><defs><style>.cls-1{fill:#333132;}</style></defs><g id="vuesax_linear_security-user" data-name="vuesax linear security-user"><g id="security-user"><g id="Group"><g id="Vector"><path class="cls-1" d="M12,22.55a5,5,0,0,1-2.84-.89L4.84,18.44a5.41,5.41,0,0,1-1.93-3.81V7.17A4,4,0,0,1,5.3,3.69l5-1.88h0a5.6,5.6,0,0,1,3.34,0l5,1.88a4,4,0,0,1,2.41,3.46V14.6a5.39,5.39,0,0,1-1.91,3.82l-4.32,3.23A5.1,5.1,0,0,1,12,22.55ZM10.65,2.75l-5,1.86A3,3,0,0,0,3.91,7.19V14.6a4.37,4.37,0,0,0,1.55,3l4.28,3.2a4,4,0,0,0,4.56,0l4.28-3.2a4.39,4.39,0,0,0,1.53-3.07V7.17A3,3,0,0,0,18.32,4.6l-5-1.85A4.6,4.6,0,0,0,10.65,2.75Z"/></g></g><g id="Group-2"><g id="Vector-2"><path class="cls-1" d="M12,11.47h-.13A2.26,2.26,0,1,1,14.2,9.29,2.27,2.27,0,0,1,12,11.47Zm-.07-3.53a1.26,1.26,0,0,0-1.26,1.22,1.26,1.26,0,0,0,1.22,1.31H12a1.27,1.27,0,0,0,0-2.53Z"/></g><g id="Vector-3"><path class="cls-1" d="M12,17.15a4.46,4.46,0,0,1-2.25-.62,1.88,1.88,0,0,1-.78-.8,1.8,1.8,0,0,1,.8-2.4,4.39,4.39,0,0,1,4.47,0,1.83,1.83,0,0,1,.78.8,1.8,1.8,0,0,1-.82,2.41A4.28,4.28,0,0,1,12,17.15Zm0-3.43a3.31,3.31,0,0,0-1.72.48l0,0a.79.79,0,0,0-.4.46.76.76,0,0,0,0,.61.83.83,0,0,0,.36.36,3.37,3.37,0,0,0,3.49,0,.81.81,0,0,0,.4-1.09.83.83,0,0,0-.36-.36A3.49,3.49,0,0,0,12,13.72Zm-2,0h0Z"/></g></g></g></g></svg>