<svg id="Layer_1" data-name="Layer 1" xmlns="http://www.w3.org/2000/svg" viewBox="0 0 24 24"><defs><style>.cls-1{fill:#333132;}</style></defs><path class="cls-1" d="M4.81,21.56a.54.54,0,0,1-.21,0,.49.49,0,0,1-.29-.45V18.74H3.1A1.78,1.78,0,0,1,1.32,17V10.13A1.78,1.78,0,0,1,3.1,8.36H14a1.78,1.78,0,0,1,1.78,1.77V17A1.78,1.78,0,0,1,14,18.74H8.25L5.13,21.43A.5.5,0,0,1,4.81,21.56ZM3.1,9.36a.77.77,0,0,0-.78.77V17a.78.78,0,0,0,.78.78H4.81a.5.5,0,0,1,.5.5V20l2.43-2.1a.5.5,0,0,1,.33-.12H14a.78.78,0,0,0,.78-.78V10.13A.77.77,0,0,0,14,9.36Z"/><path class="cls-1" d="M19.66,17.46a.52.52,0,0,1-.33-.12l-3.12-2.7h-.92a.5.5,0,0,1-.5-.5V10a.65.65,0,0,0-.65-.64h-5a.5.5,0,0,1-.5-.5V6.05a1.78,1.78,0,0,1,1.77-1.78H21.37a1.78,1.78,0,0,1,1.77,1.78v6.82a1.77,1.77,0,0,1-1.77,1.77H20.16V17a.48.48,0,0,1-.29.45A.54.54,0,0,1,19.66,17.46Zm-3.87-3.82h.61a.5.5,0,0,1,.33.12l2.43,2.11V14.14a.5.5,0,0,1,.5-.5h1.71a.77.77,0,0,0,.77-.77V6.05a.77.77,0,0,0-.77-.78H10.45a.78.78,0,0,0-.77.78V8.36h4.46A1.64,1.64,0,0,1,15.79,10Z"/></svg>