<svg id="Layer_1" data-name="Layer 1" xmlns="http://www.w3.org/2000/svg" viewBox="0 0 24 24"><defs><style>.cls-1{fill:#333132;}</style></defs><g id="vuesax_linear_programming-arrow" data-name="vuesax linear programming-arrow"><g id="programming-arrow"><g id="Vector"><path class="cls-1" d="M19.46,16.5A.5.5,0,0,1,19,16V6.5A1.52,1.52,0,0,0,17.45,5H13a.5.5,0,0,1,0-1h4.5A2.51,2.51,0,0,1,20,6.5V16A.5.5,0,0,1,19.46,16.5Z"/></g><g id="Vector-2"><path class="cls-1" d="M15.46,7.5a.47.47,0,0,1-.32-.12l-3-2.5a.49.49,0,0,1,0-.76l3-2.5a.5.5,0,1,1,.64.76L13.24,4.5l2.54,2.12a.5.5,0,0,1-.32.88Z"/></g><g id="Vector-3"><path class="cls-1" d="M5.46,16.5A.5.5,0,0,1,5,16V9a.5.5,0,0,1,.5-.5A.5.5,0,0,1,6,9v7A.5.5,0,0,1,5.46,16.5Z"/></g><g id="Vector-4"><path class="cls-1" d="M5.71,9A3.75,3.75,0,1,1,9.46,5.25,3.75,3.75,0,0,1,5.71,9Zm0-6.5A2.75,2.75,0,1,0,8.46,5.25,2.75,2.75,0,0,0,5.71,2.5Z"/></g><g id="Vector-5"><path class="cls-1" d="M5.46,22.5A3.5,3.5,0,1,1,9,19,3.5,3.5,0,0,1,5.46,22.5Zm0-6A2.5,2.5,0,1,0,8,19,2.5,2.5,0,0,0,5.46,16.5Z"/></g><g id="Vector-6"><path class="cls-1" d="M19.46,22.5A3.5,3.5,0,1,1,23,19,3.5,3.5,0,0,1,19.46,22.5Zm0-6A2.5,2.5,0,1,0,22,19,2.5,2.5,0,0,0,19.46,16.5Z"/></g></g></g></svg>