<svg id="Layer_1" data-name="Layer 1" xmlns="http://www.w3.org/2000/svg" viewBox="0 0 24 24"><defs><style>.cls-1{fill:#fff;}</style></defs><g id="vuesax_linear_logout" data-name="vuesax linear logout"><g id="logout"><g id="Vector"><path class="cls-1" d="M17.44,15.62a.47.47,0,0,1-.35-.15.48.48,0,0,1,0-.7l2.2-2.21-2.2-2.21a.49.49,0,1,1,.7-.7l2.56,2.56a.48.48,0,0,1,0,.7l-2.56,2.56A.47.47,0,0,1,17.44,15.62Z"/></g><g id="Vector-2"><path class="cls-1" d="M19.93,13.06H9.76a.5.5,0,0,1,0-1H19.93a.5.5,0,0,1,0,1Z"/></g><g id="Vector-3"><path class="cls-1" d="M11.37,21a7.92,7.92,0,0,1-8.06-7.57l0-.27a5.87,5.87,0,0,1,0-.69A8.14,8.14,0,0,1,11,4h.76a.5.5,0,0,1,.48.52.51.51,0,0,1-.52.48h-.67a7.16,7.16,0,0,0-6.81,7.48,4.36,4.36,0,0,0,0,.62l0,.3A7,7,0,0,0,11.74,20a.5.5,0,1,1,0,1Z"/></g></g></g></svg>