<svg xmlns="http://www.w3.org/2000/svg" width="16" height="21" viewBox="0 0 24 24">
  <g id="Group_4167" data-name="Group 4167" transform="translate(-96 -144)">
    <path id="Union_4" data-name="Union 4" d="M415,1317a2,2,0,0,1-2-2v-10a2,2,0,0,1,2-2h10v-2a4,4,0,0,0-7.873-1H416.1a5,5,0,0,1,9.9,1v2h1a2,2,0,0,1,2,2v10a2,2,0,0,1-2,2Zm-1-12v10a1,1,0,0,0,1,1h12a1,1,0,0,0,1-1v-10a1,1,0,0,0-1-1H415A1,1,0,0,0,414,1305Z" transform="translate(-317 -1152)" fill="#fff"/>
    <path id="Ellipse_9" data-name="Ellipse 9" d="M2-.5A2.5,2.5,0,1,1-.5,2,2.5,2.5,0,0,1,2-.5Zm0,4A1.5,1.5,0,1,0,.5,2,1.5,1.5,0,0,0,2,3.5Z" transform="translate(102 156)" fill="#fff"/>
  </g>
</svg>
