<svg id="Layer_1" data-name="Layer 1" xmlns="http://www.w3.org/2000/svg" viewBox="0 0 24 24"><defs><style>.cls-1{fill:#333132;}</style></defs><path class="cls-1" d="M12,15.46A3.46,3.46,0,1,1,15.46,12,3.46,3.46,0,0,1,12,15.46Zm0-5.91A2.46,2.46,0,1,0,14.46,12,2.46,2.46,0,0,0,12,9.55Z"/><path class="cls-1" d="M12,22.65a1.93,1.93,0,0,1-1.92-1.93V19.63A8,8,0,0,1,8,18.76l-.77.77a2,2,0,0,1-1.37.57,1.93,1.93,0,0,1-1.91-1.94,1.91,1.91,0,0,1,.57-1.36L5.26,16a7.83,7.83,0,0,1-.89-2.11H3.29a1.93,1.93,0,1,1,0-3.85H4.37A8.28,8.28,0,0,1,5.25,8L4.49,7.2a1.91,1.91,0,0,1-.57-1.37,1.87,1.87,0,0,1,.57-1.35,2,2,0,0,1,2.71,0L8,5.24a8.4,8.4,0,0,1,2.11-.87V3.29a1.93,1.93,0,1,1,3.85,0V4.37a8.05,8.05,0,0,1,2.12.88l.76-.77A1.92,1.92,0,1,1,19.53,7.2L18.76,8a7.52,7.52,0,0,1,.87,2.11h1.1a1.93,1.93,0,0,1,0,3.85h-1.1A7.9,7.9,0,0,1,18.76,16l.77.77a1.87,1.87,0,0,1,.57,1.35,1.93,1.93,0,0,1-.57,1.37,2,2,0,0,1-2.72,0L16,18.76a8.1,8.1,0,0,1-2.11.87v1.09A1.93,1.93,0,0,1,12,22.65Zm-4.1-5a.47.47,0,0,1,.28.09,6.9,6.9,0,0,0,2.5,1,.5.5,0,0,1,.4.49v1.49a.93.93,0,1,0,1.85,0V19.23a.5.5,0,0,1,.41-.49,6.93,6.93,0,0,0,2.5-1,.5.5,0,0,1,.63.07l1.05,1.05a.93.93,0,0,0,1.58-.66.91.91,0,0,0-.27-.64l-1.06-1.06a.5.5,0,0,1-.06-.63,6.84,6.84,0,0,0,1-2.5.5.5,0,0,1,.49-.4h1.5a.93.93,0,0,0,0-1.85h-1.5a.5.5,0,0,1-.49-.4,6.73,6.73,0,0,0-1-2.5.5.5,0,0,1,.06-.63l1.06-1.06a.93.93,0,0,0,.27-.65.88.88,0,0,0-.27-.64.92.92,0,0,0-1.31,0l-1,1a.53.53,0,0,1-.65.06,6.91,6.91,0,0,0-2.49-1,.5.5,0,0,1-.41-.49V3.29a.93.93,0,1,0-1.85,0V4.77a.5.5,0,0,1-.4.49,7,7,0,0,0-2.51,1,.5.5,0,0,1-.63-.07l-1-1a1,1,0,0,0-1.3,0,.92.92,0,0,0-.28.65.9.9,0,0,0,.27.66l1,1a.5.5,0,0,1,.06.62,7.36,7.36,0,0,0-1,2.52.49.49,0,0,1-.49.4H3.29a.93.93,0,1,0,0,1.85H4.77a.49.49,0,0,1,.49.4,6.73,6.73,0,0,0,1,2.5.54.54,0,0,1,.08.28.53.53,0,0,1-.15.37l-1,1a.87.87,0,0,0-.27.64.94.94,0,0,0,.27.66.92.92,0,0,0,.65.28h0a.92.92,0,0,0,.66-.28l1-1.05A.5.5,0,0,1,7.9,17.62Z"/></svg>