<svg id="Layer_1" data-name="Layer 1" xmlns="http://www.w3.org/2000/svg" viewBox="0 0 24 24"><defs><style>.cls-1{fill:#333132;}</style></defs><g id="Vector"><path class="cls-1" d="M9.94,22.57a1.1,1.1,0,0,1-.4-.07c-.34-.13-.93-.56-.93-2V13.65H6c-1.21,0-1.64-.55-1.79-.87s-.28-1,.52-1.93l7.75-8.8c.94-1.07,1.67-1,2-.88s.93.56.93,2V10H18c1.22,0,1.65.54,1.8.87s.27,1-.53,1.92l-7.75,8.81A2.27,2.27,0,0,1,9.94,22.57ZM14,2.1c-.14,0-.45.15-.86.61l-7.74,8.8c-.37.42-.43.72-.37.86s.33.28.88.28H9.11a.5.5,0,0,1,.5.5v7.37c0,.69.17,1,.29,1.05s.45-.08.91-.6l7.75-8.81c.36-.42.43-.72.37-.85S18.6,11,18,11H14.88a.5.5,0,0,1-.5-.5V3.16c0-.7-.17-1-.29-1.05Z"/></g></svg>