<svg id="Layer_1" data-name="Layer 1" xmlns="http://www.w3.org/2000/svg" viewBox="0 0 24 24"><defs><style>.cls-1{fill:#333132;}</style></defs><path class="cls-1" d="M18.33,6a2.51,2.51,0,1,1,2.51-2.5A2.5,2.5,0,0,1,18.33,6Zm0-4a1.51,1.51,0,1,0,1.51,1.51A1.51,1.51,0,0,0,18.33,2Z"/><path class="cls-1" d="M17.62,17.2A3.22,3.22,0,1,1,20.84,14,3.22,3.22,0,0,1,17.62,17.2Zm0-5.43A2.22,2.22,0,1,0,19.84,14,2.22,2.22,0,0,0,17.62,11.77Z"/><path class="cls-1" d="M7.77,10.53a3.91,3.91,0,1,1,3.91-3.91A3.92,3.92,0,0,1,7.77,10.53Zm0-6.82a2.91,2.91,0,1,0,2.91,2.91A2.91,2.91,0,0,0,7.77,3.71Z"/><path class="cls-1" d="M6.24,23a3.92,3.92,0,1,1,3.92-3.92A3.92,3.92,0,0,1,6.24,23Zm0-6.83a2.92,2.92,0,1,0,2.92,2.91A2.91,2.91,0,0,0,6.24,16.14Z"/><path class="cls-1" d="M11.43,6a.5.5,0,0,1-.15-1l5-1.57c.26-.08.3.14.39.4s.17.48-.09.56L11.58,6A.39.39,0,0,1,11.43,6Z"/><path class="cls-1" d="M15.39,12.93a.5.5,0,0,1-.31-.1l-4.9-3.75a.5.5,0,0,1,.61-.8L15.69,12a.5.5,0,0,1,.09.7A.47.47,0,0,1,15.39,12.93Z"/><path class="cls-1" d="M9.53,18.66a.52.52,0,0,1-.45-.28.51.51,0,0,1,.23-.67l5.74-2.82a.5.5,0,0,1,.67.23.51.51,0,0,1-.23.67L9.75,18.61A.54.54,0,0,1,9.53,18.66Z"/></svg>