<svg id="Layer_1" data-name="Layer 1" xmlns="http://www.w3.org/2000/svg" viewBox="0 0 24 24"><defs><style>.cls-1{fill:#333132;}</style></defs><g id="Vector-2"><path class="cls-1" d="M13.19,14.6a.75.75,0,0,1-.38-.1.81.81,0,0,1-.33-.33l-1.67-3.32L10.16,12a1.13,1.13,0,0,1-1,.58H8.48a.5.5,0,0,1-.5-.5.5.5,0,0,1,.5-.5h.73l.92-1.6a.73.73,0,0,1,.34-.33.76.76,0,0,1,.61,0,.74.74,0,0,1,.45.4l1.66,3.3.57-1.14a1.12,1.12,0,0,1,1-.59h.81a.5.5,0,0,1,.5.5.5.5,0,0,1-.5.5h-.81a.11.11,0,0,0-.09.06l-.74,1.48A.82.82,0,0,1,13.19,14.6Zm-2.55-4.11Z"/></g><g id="Vector-4"><path class="cls-1" d="M12,22.6a5,5,0,0,1-2.84-.89L4.84,18.49a5.39,5.39,0,0,1-1.93-3.81V7.22A4,4,0,0,1,5.3,3.75l5-1.89h0a5.6,5.6,0,0,1,3.34,0l5,1.88A4,4,0,0,1,21.11,7.2v7.45a5.37,5.37,0,0,1-1.91,3.82L14.88,21.7A5.1,5.1,0,0,1,12,22.6ZM10.65,2.8l-5,1.88A2.94,2.94,0,0,0,3.91,7.25v7.4a4.41,4.41,0,0,0,1.55,3.06L9.74,20.9a4,4,0,0,0,4.56,0l4.28-3.2a4.39,4.39,0,0,0,1.53-3.07V7.22a3,3,0,0,0-1.79-2.56l-5-1.86A4.6,4.6,0,0,0,10.65,2.8Z"/></g></svg>