<?xml version="1.0" encoding="UTF-8"?><svg id="a" xmlns="http://www.w3.org/2000/svg" viewBox="0 0 24 24"><defs><style>.c{fill:#333132;}</style></defs><g id="b"><path class="c" d="M9.04,22.32c-.16,0-.29-.03-.4-.07-.35-.13-.93-.56-.93-1.98v-6.87h-2.66c-1.21,0-1.64-.54-1.79-.87-.15-.32-.28-1.01,.52-1.93L11.54,1.79c.94-1.07,1.66-1.01,2.01-.88,.35,.13,.93,.56,.93,1.98v6.87h2.66c1.22,0,1.65,.55,1.8,.88,.15,.33,.27,1.01-.53,1.92l-1.01,1.14c-.18,.21-.35,.1-.56-.08-.21-.18-.37-.37-.19-.58l1.01-1.15c.37-.42,.43-.72,.37-.85-.06-.13-.33-.29-.89-.29h-3.16c-.28,0-.5-.22-.5-.5V2.9c0-.69-.17-1.01-.28-1.05-.12-.04-.45,.08-.91,.6L4.54,11.25c-.37,.42-.43,.72-.37,.85,.06,.13,.33,.28,.88,.28h3.16c.28,0,.5,.22,.5,.5v7.37c0,.69,.17,1.01,.28,1.05,.12,.04,.45-.08,.91-.6l1.03-1.17c.18-.21,.34-.03,.55,.15,.21,.18,.39,.3,.2,.51l-1.03,1.17c-.67,.76-1.22,.95-1.62,.95Z"/></g><path class="c" d="M15.55,22.78c-2.73,0-4.95-2.22-4.95-4.95s2.22-4.95,4.95-4.95,4.95,2.22,4.95,4.95-2.22,4.95-4.95,4.95Zm0-8.9c-2.18,0-3.95,1.77-3.95,3.95s1.77,3.95,3.95,3.95,3.95-1.77,3.95-3.95-1.77-3.95-3.95-3.95Z"/><path class="c" d="M17.07,19.53c-.11,0-.22-.03-.31-.11l-1.52-1.18c-.12-.09-.19-.24-.19-.39v-2.33c0-.28,.22-.5,.5-.5s.5,.22,.5,.5v2.09l1.33,1.03c.22,.17,.26,.48,.09,.7-.1,.13-.25,.19-.4,.19Z"/></svg>