<svg id="Layer_1" data-name="Layer 1" xmlns="http://www.w3.org/2000/svg" viewBox="0 0 24 24"><defs><style>.cls-1{fill:#333132;}</style></defs><g id="vuesax_linear_maximize-2" data-name="vuesax linear maximize-2"><g id="maximize-2"><g id="Vector"><path class="cls-1" d="M2,9.5A.5.5,0,0,1,1.5,9V6.5A5,5,0,0,1,3,3,4.92,4.92,0,0,1,6.49,1.5H9a.5.5,0,0,1,0,1H6.5a4,4,0,0,0-4,4V9A.5.5,0,0,1,2,9.5Z"/></g><g id="Vector-2"><path class="cls-1" d="M22,9.5a.5.5,0,0,1-.5-.5V6.5a4,4,0,0,0-4-4H15a.5.5,0,0,1,0-1h2.51a5,5,0,0,1,5,5V9A.5.5,0,0,1,22,9.5Z"/></g><g id="Vector-3"><path class="cls-1" d="M17.51,22.5H16a.5.5,0,0,1,0-1h1.5a4,4,0,0,0,4-4V16a.5.5,0,0,1,1,0v1.5a5,5,0,0,1-5,5Z"/></g><g id="Vector-4"><path class="cls-1" d="M6.49,22.5a5,5,0,0,1-5-5V15a.5.5,0,0,1,1,0v2.5a4,4,0,0,0,4,4H9a.5.5,0,0,1,0,1H6.49Z"/></g></g></g></svg>