<svg id="Layer_1" data-name="Layer 1" xmlns="http://www.w3.org/2000/svg" viewBox="0 0 24 24"><defs><style>.cls-1{fill:#333132;}</style></defs><title>info</title><path class="cls-1" d="M12,17.17h0a.51.51,0,0,1-.5-.5V10.34a.5.5,0,0,1,.5-.5h0a.5.5,0,0,1,.5.5v6.33A.5.5,0,0,1,12,17.17Z"/><path class="cls-1" d="M12,8.24a.5.5,0,0,1-.5-.5V6.81a.5.5,0,0,1,.5-.5.51.51,0,0,1,.5.5v.93A.51.51,0,0,1,12,8.24Z"/><path class="cls-1" d="M12,21.54A9.54,9.54,0,1,1,21.54,12,9.55,9.55,0,0,1,12,21.54ZM12,3.46A8.54,8.54,0,1,0,20.54,12,8.55,8.55,0,0,0,12,3.46Z"/></svg>