<svg id="Layer_1" data-name="Layer 1" xmlns="http://www.w3.org/2000/svg" viewBox="0 0 24 24"><defs><style>.cls-1{fill:#333132;}</style></defs><path class="cls-1" d="M12.1,21H4.43a3.3,3.3,0,0,1-3.32-3.27V6.36A3.29,3.29,0,0,1,4.43,3.1H19.75a3.29,3.29,0,0,1,3.32,3.26V17.69A3.3,3.3,0,0,1,19.75,21ZM4.43,4.1A2.29,2.29,0,0,0,2.11,6.36V17.69A2.3,2.3,0,0,0,4.43,20H19.75a2.3,2.3,0,0,0,2.32-2.27V6.36A2.29,2.29,0,0,0,19.75,4.1Z"/><path class="cls-1" d="M18.34,9.17H5.85a.5.5,0,0,1-.5-.5.5.5,0,0,1,.5-.5H18.34a.5.5,0,0,1,.5.5A.51.51,0,0,1,18.34,9.17Z"/><path class="cls-1" d="M18.34,12.71H5.85a.5.5,0,0,1-.5-.5.5.5,0,0,1,.5-.5H18.34a.51.51,0,0,1,.5.5A.5.5,0,0,1,18.34,12.71Z"/><path class="cls-1" d="M12.64,16.26H5.85a.5.5,0,0,1,0-1h6.79a.5.5,0,0,1,0,1Z"/></svg>