<svg id="Layer_1" data-name="Layer 1" xmlns="http://www.w3.org/2000/svg" viewBox="0 0 24 24"><defs><style>.cls-1{fill:#333132;}</style></defs><path class="cls-1" d="M12,14.75A2.75,2.75,0,1,1,14.75,12,2.75,2.75,0,0,1,12,14.75Zm0-4.5A1.75,1.75,0,1,0,13.75,12,1.75,1.75,0,0,0,12,10.25Z"/><path class="cls-1" d="M12,20.21a1.58,1.58,0,0,1-1.58-1.58v-.74A5.71,5.71,0,0,1,9,17.28l-.52.52a1.57,1.57,0,0,1-2.24,0,1.58,1.58,0,0,1,0-2.24l.51-.51a6,6,0,0,1-.61-1.46h-4a.51.51,0,0,1-.5-.5.5.5,0,0,1,.5-.5H6.51A.49.49,0,0,1,7,13a5.09,5.09,0,0,0,.77,1.85.47.47,0,0,1,.09.28.53.53,0,0,1-.15.36l-.8.8a.54.54,0,0,0-.17.4.59.59,0,0,0,.17.42.57.57,0,0,0,.41.17.58.58,0,0,0,.41-.17l.8-.8a.51.51,0,0,1,.64-.07A4.82,4.82,0,0,0,11,17a.5.5,0,0,1,.4.49v1.14a.58.58,0,0,0,.58.58.59.59,0,0,0,.59-.58V17.49A.5.5,0,0,1,13,17a5.21,5.21,0,0,0,1.86-.77.5.5,0,0,1,.63.07l.8.8a.59.59,0,0,0,.82,0,.61.61,0,0,0,.17-.42.54.54,0,0,0-.17-.4l-.8-.81a.5.5,0,0,1-.07-.63A5.09,5.09,0,0,0,17,13a.49.49,0,0,1,.49-.4h1.14a.5.5,0,0,1,.5.5.5.5,0,0,1-.5.5h-.74a6.37,6.37,0,0,1-.61,1.46l.53.52a1.55,1.55,0,0,1,.46,1.1,1.58,1.58,0,0,1-.46,1.13,1.63,1.63,0,0,1-2.25,0l-.51-.52a6.19,6.19,0,0,1-1.46.61v.74A1.59,1.59,0,0,1,12,20.21Z"/><path class="cls-1" d="M21.86,11.42H17.49A.5.5,0,0,1,17,11a5.08,5.08,0,0,0-.76-1.86.49.49,0,0,1,.06-.63l.8-.8a.59.59,0,0,0,0-.82.56.56,0,0,0-.43-.17.59.59,0,0,0-.4.16l-.79.81a.54.54,0,0,1-.65.06A5,5,0,0,0,13,7a.51.51,0,0,1-.4-.49V5.38A.6.6,0,0,0,12,4.79a.58.58,0,0,0-.58.59V6.51A.51.51,0,0,1,11,7a5.08,5.08,0,0,0-1.87.77.51.51,0,0,1-.63-.07l-.79-.79a.59.59,0,0,0-.81,0,.57.57,0,0,0-.18.41.59.59,0,0,0,.17.42l.79.79a.5.5,0,0,1,.07.63A5.26,5.26,0,0,0,7,11a.5.5,0,0,1-.49.4H5.38a.5.5,0,0,1,0-1h.73A6.26,6.26,0,0,1,6.72,9L6.2,8.44a1.61,1.61,0,0,1-.46-1.13A1.54,1.54,0,0,1,6.21,6.2a1.63,1.63,0,0,1,2.23,0L9,6.72a6.26,6.26,0,0,1,1.47-.61V5.38a1.59,1.59,0,1,1,3.17,0v.73a6,6,0,0,1,1.46.61l.52-.52a1.53,1.53,0,0,1,1.11-.46,1.57,1.57,0,0,1,1.59,1.57,1.58,1.58,0,0,1-.46,1.13L17.29,9a6.06,6.06,0,0,1,.6,1.46h4a.5.5,0,0,1,0,1Z"/><path class="cls-1" d="M12,22.44A10.44,10.44,0,1,1,22.44,12,10.45,10.45,0,0,1,12,22.44ZM12,2.56A9.44,9.44,0,1,0,21.44,12,9.46,9.46,0,0,0,12,2.56Z"/></svg>