<svg id="Layer_1" data-name="Layer 1" xmlns="http://www.w3.org/2000/svg" viewBox="0 0 24 24"><defs><style>.cls-1{fill:#333132;}</style></defs><path class="cls-1" d="M18.61,22.14h-8.4A2.32,2.32,0,0,1,7.9,19.82V8.25a2.32,2.32,0,0,1,2.31-2.31h8.4a2.32,2.32,0,0,1,2.32,2.31V19.82A2.32,2.32,0,0,1,18.61,22.14Zm-8.4-15.2A1.31,1.31,0,0,0,8.9,8.25V19.82a1.32,1.32,0,0,0,1.31,1.32h8.4a1.32,1.32,0,0,0,1.32-1.32V8.25a1.32,1.32,0,0,0-1.32-1.31Z"/><path class="cls-1" d="M8.4,18.16H5.89a2.32,2.32,0,0,1-2.32-2.32V4.26A2.31,2.31,0,0,1,5.89,2h8.39A2.31,2.31,0,0,1,16.6,4.26V6.44a.51.51,0,0,1-.5.5H10.21A1.31,1.31,0,0,0,8.9,8.25v9.41A.51.51,0,0,1,8.4,18.16ZM5.89,3A1.32,1.32,0,0,0,4.57,4.26V15.84a1.32,1.32,0,0,0,1.32,1.32h2V8.25a2.32,2.32,0,0,1,2.31-2.31H15.6V4.26A1.32,1.32,0,0,0,14.28,3Z"/></svg>