<svg id="Layer_1" data-name="Layer 1" xmlns="http://www.w3.org/2000/svg" viewBox="0 0 24 24"><defs><style>.cls-1{fill:#ea3953;}.cls-2{fill:#fff;}</style></defs><circle class="cls-1" cx="11.78" cy="12" r="9.18"/><g id="Vector-2"><path class="cls-2" d="M14.17,14.82a.77.77,0,0,1-.53-.21L9.39,10.36a.76.76,0,0,1,1.07-1.07l4.25,4.25a.77.77,0,0,1,0,1.07A.78.78,0,0,1,14.17,14.82Z"/></g><g id="Vector-3"><path class="cls-2" d="M9.87,14.87a.77.77,0,0,1-.53-.21.77.77,0,0,1,0-1.07l4.25-4.25a.76.76,0,0,1,1.07,1.07l-4.25,4.25A.78.78,0,0,1,9.87,14.87Z"/></g></svg>