<svg id="Layer_1" data-name="Layer 1" xmlns="http://www.w3.org/2000/svg" viewBox="0 0 24 24"><defs><style>.cls-1{fill:#333132;}</style></defs><path class="cls-1" d="M7.41,23.09a.51.51,0,0,1-.35-.15L3.12,19a.5.5,0,0,1,0-.7l3.71-3.81a.48.48,0,0,1,.36-.15h7.17a1.89,1.89,0,0,1,1.56.81l1.46-1.58a2.1,2.1,0,0,1,1.46-.69,2.06,2.06,0,0,1,1.52.55,2.09,2.09,0,0,1,.19,2.92l-3.82,4.46a2.65,2.65,0,0,1-2,.92H8.92l-1.14,1.2a.54.54,0,0,1-.36.16ZM4.18,18.64l3.23,3.23.93-1a.5.5,0,0,1,.36-.16h6A1.63,1.63,0,0,0,16,20.16l3.82-4.46a1.1,1.1,0,0,0-.1-1.53,1.12,1.12,0,0,0-.8-.29,1.08,1.08,0,0,0-.77.36l-1.86,2a1.91,1.91,0,0,1-1.9,1.89H11.2a.5.5,0,0,1-.5-.5.5.5,0,0,1,.5-.5h3.16a.91.91,0,0,0,0-1.81h-7Z"/><path class="cls-1" d="M12,9.43a2.28,2.28,0,1,1,2.28-2.28A2.29,2.29,0,0,1,12,9.43Zm0-3.56a1.28,1.28,0,1,0,1.28,1.28A1.28,1.28,0,0,0,12,5.87Z"/><path class="cls-1" d="M12,13.75a1.35,1.35,0,0,1-1.35-1.35v-.51a4.75,4.75,0,0,1-1-.43l-.36.36a1.42,1.42,0,0,1-1,.4,1.36,1.36,0,0,1-.95-.41,1.36,1.36,0,0,1,0-1.92l.35-.34a5,5,0,0,1-.43-1h-.5a1.36,1.36,0,0,1,0-2.72h.5a4.67,4.67,0,0,1,.43-1L7.34,4.4a1.35,1.35,0,0,1-.4-1,1.31,1.31,0,0,1,.4-1,1.39,1.39,0,0,1,1.91,0l.36.35a5.56,5.56,0,0,1,1-.43V1.9a1.36,1.36,0,1,1,2.71,0v.5a5,5,0,0,1,1,.44l.35-.36a1.35,1.35,0,0,1,.95-.4,1.39,1.39,0,0,1,1,.4,1.35,1.35,0,0,1,0,1.92l-.35.35a4.93,4.93,0,0,1,.42,1h.51a1.36,1.36,0,0,1,0,2.72h-.51a4.41,4.41,0,0,1-.43,1l.36.36a1.31,1.31,0,0,1,.4.95,1.37,1.37,0,0,1-.4,1,1.39,1.39,0,0,1-1.92,0l-.35-.35a5,5,0,0,1-1,.43v.51A1.36,1.36,0,0,1,12,13.75ZM9.53,10.33a.47.47,0,0,1,.28.09,4.2,4.2,0,0,0,1.43.59.49.49,0,0,1,.41.49v.9a.35.35,0,0,0,.35.35.36.36,0,0,0,.36-.35v-.9a.49.49,0,0,1,.4-.49,4.12,4.12,0,0,0,1.44-.6.5.5,0,0,1,.63.07l.63.63c.25.26.4.11.5,0a.36.36,0,0,0,.11-.26.35.35,0,0,0-.1-.24L15.33,10a.49.49,0,0,1-.06-.63,4,4,0,0,0,.59-1.43.5.5,0,0,1,.49-.4h.9a.36.36,0,0,0,0-.72h-.9a.5.5,0,0,1-.49-.4A3.84,3.84,0,0,0,15.27,5a.49.49,0,0,1,.06-.63L16,3.69a.36.36,0,0,0,.11-.25A.33.33,0,0,0,16,3.2a.34.34,0,0,0-.26-.12h0a.34.34,0,0,0-.25.11l-.63.63a.51.51,0,0,1-.64.06,3.84,3.84,0,0,0-1.43-.59.5.5,0,0,1-.4-.49V1.9A.36.36,0,0,0,12,1.54a.35.35,0,0,0-.35.36v.9a.5.5,0,0,1-.41.49,4.18,4.18,0,0,0-1.44.59.51.51,0,0,1-.63-.06l-.62-.63a.3.3,0,0,0-.5,0,.34.34,0,0,0-.11.26.35.35,0,0,0,.1.25l.63.63A.51.51,0,0,1,8.74,5a3.94,3.94,0,0,0-.6,1.44.5.5,0,0,1-.49.4H6.76a.36.36,0,0,0-.36.36.36.36,0,0,0,.36.36h.89a.5.5,0,0,1,.49.4,3.83,3.83,0,0,0,.6,1.43.54.54,0,0,1,.08.28.49.49,0,0,1-.15.36L8,10.61a.34.34,0,0,0-.1.25.35.35,0,0,0,.1.25c.07.07.2.13.25.11a.36.36,0,0,0,.26-.11l.63-.63A.49.49,0,0,1,9.53,10.33Z"/></svg>