<?xml version="1.0" encoding="utf-8"?>
<!-- Generator: Adobe Illustrator 24.1.1, SVG Export Plug-In . SVG Version: 6.00 Build 0)  -->
<svg version="1.1" id="Layer_1" xmlns="http://www.w3.org/2000/svg" xmlns:xlink="http://www.w3.org/1999/xlink" x="0px" y="0px"
	 viewBox="0 0 512 512" style="enable-background:new 0 0 512 512;" xml:space="preserve">
<g>
	<path d="M256,0C114.8,0,0,114.8,0,256s114.8,256,256,256s256-114.8,256-256S397.2,0,256,0z M256,24.4
		c127.9,0,231.6,103.7,231.6,231.6S383.9,487.6,256,487.6C128.1,487.6,24.4,383.9,24.4,256S128.1,24.4,256,24.4z M178.6,125.2
		c-3-0.1-6,0-9.1,0.1c-20.9,1.3-33.5,11.1-37,31.4c-2.4,14.3-2,28.7-3,43.1c-0.3,7.4-1.1,14.9-2.5,22.1c-2.8,13-8.4,17.1-21.6,17.8
		c-1.8,0.2-3.5,0.5-5.2,0.9v31.2c24,1.2,27.3,9.7,29.2,34.8c0.8,9.2-0.2,18.4,0.3,27.5c0.4,8.7,1.6,17.3,3.3,25.6
		c5.5,22.9,27.9,30.6,54.9,26v-27.4c-4.4,0-8.2,0.1-11.8,0c-9.3-0.3-12.7-2.6-13.5-11.4c-1.3-11.4-0.9-23-1.6-34.5
		c-1.4-21.4-3.8-42.4-24.7-56c10.8-7.9,18.6-17.3,21-29.8c1.7-8.8,2.8-17.6,3.5-26.4c0.7-8.8-0.4-17.9,0.3-26.7
		c1.2-14.2,2.2-20,19.1-19.4c2.6,0,5.1-0.3,7.9-0.6v-27.9C184.8,125.3,181.7,125.3,178.6,125.2z M340.6,125.4
		c-5.8-0.2-11.7,0.3-17.4,1.3v27.2c5.3,0,9.3,0,13.3,0.1c7,0.1,12.4,2.8,13,10.6c0.6,7.1,0.6,14.3,1.3,21.4
		c1.4,14.3,2.2,28.7,4.7,42.8c2.2,11.6,10.2,20.2,20.1,27.4c-17.4,11.7-22.6,28.4-23.4,47.3c-0.5,12.8-0.8,25.8-1.5,38.8
		c-0.6,11.8-4.8,15.7-16.7,15.9c-3.3,0.2-6.6,0.4-10.2,0.7v27.8c6.9,0,13.3,0.4,19.8,0c19.8-1.2,31.9-10.8,35.8-30.2
		c1.7-10.6,2.7-21.3,2.9-32.1c0.7-9.8,0.6-19.8,1.6-29.5c1.5-15.3,8.5-21.6,23.7-22.6c1.4-0.2,2.8-0.5,4.3-0.9v-31.2
		c-2.6-0.3-4.3-0.6-6.3-0.7c-11.4-0.5-17.1-4.4-20-15.2c-1.7-6.9-2.8-14-3.2-21.2c-0.8-13.2-0.8-26.5-1.6-39.7
		C379.1,138.1,363.9,126.1,340.6,125.4L340.6,125.4z M193.6,238c-22.9,0-24.6,33.7-1.8,35.9h1.3c9.7,0.6,18.1-6.8,18.7-16.6v-1
		c0.2-9.9-7.7-18.2-17.7-18.4H193.6z M255.7,238c-9.5-0.3-17.5,7.2-17.8,16.7l0.1,1.7c0,10.8,7.3,17.6,18.4,17.6
		c10.8,0,17.7-7.1,17.7-18.2C273.8,245,266.6,237.9,255.7,238L255.7,238z M318.8,238c-10-0.2-18.3,7.8-18.7,17.8
		c0,10,8.1,18.1,18.2,18.1h0.2c9.1,1.6,18.2-7.2,18.8-17.7C337.8,246.5,328.9,238,318.8,238L318.8,238z"/>
</g>
</svg>
